<svg width="15" height="318" viewBox="0 0 15 318" fill="none" xmlns="http://www.w3.org/2000/svg">
<path d="M1.00014 0C1.00014 34.75 1.00014 23.5 1.00014 51C1.00014 61.1561 1.00014 70 1.00014 74.5C1.00014 84.5 14.0001 90.0001 14.0001 82C14.0001 74.1221 1.00014 80 1.00014 89C1.00014 98 1.00014 105.759 1.00014 119.5C1.00014 167 1.00014 150.5 1.00014 150.5" stroke="#82A8CC" stroke-dasharray="2 2"/>
<path d="M1.00012 152C1.00012 189.636 1.00012 177.451 1.00012 207.235C1.00012 218.234 1.00012 227.813 1.00012 232.686C1.00012 243.517 14.0001 249.473 14.0001 240.809C14.0001 232.277 1.00012 238.643 1.00012 248.39C1.00012 258.138 1.00012 266.541 1.00012 281.423C1.00012 332.867 1.00012 314.997 1.00012 314.997" stroke="#82A8CC" stroke-dasharray="2 2"/>
</svg>
