<svg width="396" height="106" viewBox="0 0 396 106" fill="none" xmlns="http://www.w3.org/2000/svg">
<g clip-path="url(#clip0_1807_4)">
<ellipse cx="345.556" cy="110.666" rx="59.5" ry="60" fill="url(#paint0_linear_1807_4)"/>
<g clip-path="url(#clip1_1807_4)">
<path d="M307.521 62.6492C307.238 63.0721 306.847 63.2833 306.346 63.2831C305.845 63.2828 305.455 63.0785 305.173 62.6701L301.608 57.4708C301.341 57.0813 301.18 56.6478 301.125 56.1702C301.07 55.6925 301.135 55.2334 301.318 54.7927L302.022 53.0644C303.24 54.5482 304.384 55.7677 305.455 56.7227C306.525 57.6777 307.882 58.6654 309.526 59.6858L307.521 62.6492ZM311.529 57.41C311.257 57.5969 310.963 57.6695 310.648 57.6278C310.333 57.5861 310.04 57.472 309.769 57.2856C308.322 56.3025 307.082 55.3284 306.048 54.3632C305.014 53.398 303.989 52.175 302.974 50.6943C301.478 48.5133 300.442 46.1677 299.866 43.6575C299.29 41.1473 299.253 38.8178 299.755 36.6689C299.792 36.4719 299.876 36.292 300.008 36.1292C300.141 35.9663 300.285 35.8322 300.44 35.7267C300.596 35.6212 300.773 35.5354 300.973 35.4694C301.173 35.4034 301.371 35.3893 301.566 35.4271C303.751 35.7325 305.91 36.6067 308.045 38.0495C310.179 39.4922 311.994 41.3037 313.489 43.4839C314.517 44.9833 315.292 46.3845 315.813 47.6876C316.335 48.9906 316.793 50.4941 317.188 52.1983C317.265 52.5182 317.266 52.8326 317.191 53.1413C317.116 53.4501 316.943 53.698 316.67 53.8849L311.529 57.41ZM308.492 47.4688C309.134 47.0282 309.528 46.4222 309.672 45.651C309.817 44.8797 309.668 44.1726 309.226 43.5298C308.784 42.8869 308.179 42.4938 307.409 42.3503C306.64 42.2068 305.932 42.3552 305.287 42.7953C304.642 43.2355 304.249 43.8415 304.108 44.6136C303.968 45.3856 304.116 46.0925 304.553 46.7344C304.989 47.3763 305.596 47.7695 306.372 47.9142C307.148 48.0589 307.854 47.9104 308.492 47.4688ZM323.002 52.034L319.515 52.8359C319.156 50.9348 318.724 49.3129 318.219 47.9701C317.714 46.6273 316.989 45.1208 316.043 43.4506L317.909 43.4164C318.387 43.4036 318.839 43.5089 319.264 43.7323C319.69 43.9557 320.036 44.2624 320.302 44.6524L323.867 49.8516C324.148 50.2606 324.198 50.6986 324.018 51.1656C323.838 51.6327 323.499 51.9222 323.002 52.034Z" fill="#84B9FC"/>
</g>
<path d="M12.6288 118.408C17.1284 78.3446 40.7627 29.0702 79.8037 7.66006" stroke="url(#paint1_linear_1807_4)"/>
<path d="M47.6288 139.408C52.1284 99.3446 75.7627 50.0702 114.804 28.6601" stroke="url(#paint2_linear_1807_4)"/>
<path d="M84.6288 161.408C89.1284 121.345 112.763 72.0702 151.804 50.6601" stroke="url(#paint3_linear_1807_4)"/>
</g>
<defs>
<linearGradient id="paint0_linear_1807_4" x1="345.556" y1="50.6663" x2="346.056" y2="110.666" gradientUnits="userSpaceOnUse">
<stop stop-color="white" stop-opacity="0.34"/>
<stop offset="1" stop-color="white" stop-opacity="0"/>
</linearGradient>
<linearGradient id="paint1_linear_1807_4" x1="73.4893" y1="3.83002" x2="6.31439" y2="114.578" gradientUnits="userSpaceOnUse">
<stop stop-color="white" stop-opacity="0"/>
<stop offset="1" stop-color="white"/>
</linearGradient>
<linearGradient id="paint2_linear_1807_4" x1="108.489" y1="24.83" x2="41.3144" y2="135.578" gradientUnits="userSpaceOnUse">
<stop stop-color="white" stop-opacity="0"/>
<stop offset="1" stop-color="white"/>
</linearGradient>
<linearGradient id="paint3_linear_1807_4" x1="145.489" y1="46.83" x2="78.3144" y2="157.578" gradientUnits="userSpaceOnUse">
<stop stop-color="white" stop-opacity="0"/>
<stop offset="1" stop-color="white"/>
</linearGradient>
<clipPath id="clip0_1807_4">
<rect width="396" height="106" fill="white"/>
</clipPath>
<clipPath id="clip1_1807_4">
<rect width="34" height="34" fill="white" transform="translate(284.056 41.8938) rotate(-34.4384)"/>
</clipPath>
</defs>
</svg>
