<svg width="140" height="51" viewBox="0 0 140 51" fill="none" xmlns="http://www.w3.org/2000/svg">
<path d="M44.1175 3.94712C44.1175 3.94712 48.9969 2.99969 56.5469 10.7859C69.7371 24.3888 76.287 48.9455 61.6649 48.9455C47.0427 48.9455 53.5924 24.3887 66.7827 10.7859C74.3326 2.99981 79.9427 3.94712 79.9427 3.94712" stroke="black" stroke-dasharray="2 2"/>
<path d="M46.3107 4.07937C46.3107 4.07937 39.494 1.83552 31.9441 9.62161C18.7539 23.2244 11.6025 47.7812 26.8263 47.7812C42.05 47.7812 34.8985 23.2245 21.7083 9.62161C14.1583 1.8354 11.5955 -0.0210522 6.32007 1.90753C1.04461 3.83611 1.99995 6.5 1.99995 6.5" stroke="black" stroke-dasharray="2 2"/>
<path d="M79.7966 3.94165C79.7966 3.94165 84.2005 3.70625 91.7505 11.4925C104.941 25.0953 112.092 49.6521 96.8684 49.6521C81.6447 49.6521 88.796 25.0953 101.986 11.4925C109.536 3.70637 112.487 2.12127 119.346 3.94165C126.205 5.76203 130.082 14.7608 130.082 14.7608" stroke="black" stroke-dasharray="2 2"/>
<g clip-path="url(#clip0_1796_7)">
<path fill-rule="evenodd" clip-rule="evenodd" d="M136.195 24.2241L136.152 24.3357C136.033 24.6298 135.875 25.0187 135.589 25.1895C135.355 25.3297 135.034 25.3252 134.752 25.2999L134.571 25.2814C134.145 25.2349 133.603 25.1144 133.029 24.8667C131.896 24.3782 130.645 23.3952 129.951 21.5422C129.868 21.5122 129.782 21.4902 129.696 21.4704L129.566 21.4426C129.367 21.4002 129.168 21.3578 128.99 21.2545C128.713 21.0936 128.593 20.7382 128.524 20.4166L128.493 20.2598L128.459 20.059C128.4 19.6848 128.368 19.1913 128.726 18.9772C128.941 18.8486 129.21 18.8412 129.474 18.8467L129.573 18.849C129.697 18.8544 129.821 18.8535 129.946 18.8465C130.018 18.8406 130.091 18.833 130.165 18.8239C130.137 18.7861 130.111 18.747 130.086 18.7066C129.97 18.5114 129.919 18.2513 129.891 18.0404C129.861 17.8104 129.848 17.5554 129.844 17.3212L129.842 17.2011L129.843 16.972L129.847 16.7654L129.856 16.5192L129.864 16.3661C129.869 16.2899 129.892 16.216 129.932 16.1508C129.971 16.0857 130.026 16.0311 130.092 15.9919C130.157 15.9527 130.231 15.9301 130.308 15.9259C130.384 15.9217 130.46 15.9361 130.529 15.9679L130.715 16.0557L131.012 16.2047L131.229 16.3187L131.381 16.4021C131.585 16.5167 131.803 16.6486 131.991 16.7842C132.164 16.9085 132.37 17.0759 132.486 17.271L132.512 17.3159L132.531 17.29C132.58 17.2201 132.626 17.1486 132.67 17.0755L132.74 16.96C132.914 16.6702 133.1 16.3605 133.361 16.2047C133.678 16.0151 134.041 16.1972 134.33 16.3997L134.441 16.4805L134.602 16.606L134.725 16.7077C134.976 16.9205 135.232 17.194 135.243 17.5139C135.249 17.6835 135.21 17.8487 135.164 18.0129L135.136 18.1116C135.099 18.2397 135.061 18.3673 135.042 18.4964C136.347 19.9845 136.621 21.5518 136.516 22.781C136.474 23.2743 136.366 23.7597 136.195 24.2241ZM131.581 18.3491C131.652 18.2913 131.704 18.214 131.731 18.1268C131.758 18.0396 131.759 17.9464 131.734 17.8588L131.713 17.8007L131.686 17.7492L131.628 17.6748C131.488 17.5145 131.27 17.3885 131.063 17.2813L130.864 17.1793L130.774 17.1321L130.773 17.2236L130.769 17.4235C130.764 17.7 130.77 18.0096 130.886 18.228C130.944 18.3249 131.035 18.3975 131.142 18.4323C131.25 18.4671 131.366 18.4617 131.47 18.4171L131.521 18.3908L131.535 18.3825L131.581 18.3491ZM133.917 22.3881C134.022 22.3253 134.114 22.2424 134.187 22.1441C134.26 22.0459 134.313 21.9342 134.343 21.8155C134.373 21.6968 134.379 21.5734 134.361 21.4523C134.343 21.3312 134.302 21.2148 134.239 21.1098C134.176 21.0047 134.093 20.9131 133.995 20.84C133.897 20.767 133.785 20.7141 133.666 20.6842C133.548 20.6543 133.424 20.6481 133.303 20.666C133.182 20.6838 133.066 20.7253 132.96 20.7881C132.748 20.915 132.595 21.1209 132.535 21.3607C132.475 21.6004 132.512 21.8543 132.639 22.0664C132.766 22.2786 132.972 22.4317 133.211 22.492C133.451 22.5523 133.705 22.5149 133.917 22.3881Z" fill="black"/>
</g>
<defs>
<clipPath id="clip0_1796_7">
<rect width="11.1847" height="11.1847" fill="white" transform="translate(140 18.7139) rotate(116.817)"/>
</clipPath>
</defs>
</svg>
