<svg width="82" height="132" viewBox="0 0 82 132" fill="none" xmlns="http://www.w3.org/2000/svg">
<g clip-path="url(#clip0_1708_2)">
<g clip-path="url(#clip1_1708_2)">
<path fill-rule="evenodd" clip-rule="evenodd" d="M19.1843 24.0721L19.3811 23.4156C19.9233 21.6841 20.6459 19.3935 22.1996 18.2889C23.4686 17.3825 25.306 17.2611 26.9259 17.2762L27.9658 17.2994C30.4146 17.3699 33.5639 17.8095 36.9509 18.9595C43.6355 21.2285 51.2211 26.2634 56.0271 36.5155C56.5131 36.6485 57.0123 36.735 57.5138 36.8084L58.2651 36.9075C59.4214 37.0584 60.5777 37.2093 61.6389 37.7174C63.2907 38.5085 64.1357 40.481 64.6767 42.2835L64.9264 43.1636L65.2126 44.2933C65.7186 46.4008 66.1299 49.2009 64.1831 50.5857C63.0186 51.4177 61.4875 51.5824 59.9771 51.6722L59.412 51.7044C58.7014 51.7303 57.9926 51.7918 57.2881 51.8886C56.8803 51.9553 56.4664 52.0318 56.0463 52.1181C56.2242 52.3206 56.3918 52.5319 56.5484 52.7513C57.3033 53.811 57.7097 55.2717 57.9669 56.4614C58.2437 57.7599 58.4331 59.2086 58.5661 60.5423L58.6297 61.2263L58.732 62.5333L58.8042 63.7135L58.8652 65.1218L58.8883 65.999C58.8956 66.4358 58.7965 66.8679 58.5996 67.2579C58.4027 67.6479 58.1139 67.9841 57.7581 68.2376C57.4023 68.4911 56.9902 68.6542 56.5573 68.7129C56.1244 68.7717 55.6837 68.7242 55.2732 68.5746L54.1777 68.1581L52.4101 67.4449L51.1236 66.8936L50.2184 66.4874C49.0038 65.9265 47.6964 65.2744 46.5627 64.5865C45.5192 63.957 44.2712 63.0958 43.5163 62.0361L43.3491 61.7917L43.2525 61.9486C43.0063 62.3694 42.7746 62.7986 42.5578 63.2353L42.2119 63.9262C41.3532 65.6586 40.4312 67.5102 39.0127 68.5185C37.2953 69.7444 35.1407 68.8715 33.398 67.8488L32.726 67.4386L31.7522 66.7964L31.0019 66.273C29.4776 65.1734 27.8893 63.7304 27.6811 61.9108C27.5726 60.9462 27.7176 59.9863 27.9055 59.0282L28.0211 58.4527C28.1737 57.705 28.3284 56.9604 28.3806 56.2147C20.2579 48.3233 17.9767 39.5092 18.0155 32.4502C18.0262 29.6176 18.4194 26.7994 19.1843 24.0721ZM48.1848 55.4733C47.8087 55.8355 47.5472 56.3003 47.4328 56.8098C47.3184 57.3194 47.3561 57.8513 47.5413 58.3396L47.6873 58.6616L47.8646 58.9428L48.2249 59.3413C49.0989 60.1911 50.401 60.8099 51.6284 61.327L52.8115 61.8177L53.3491 62.0458L53.3125 61.5232L53.2446 60.3816C53.1448 58.8019 52.9676 57.0389 52.208 55.846C51.8334 55.3198 51.2805 54.9475 50.6521 54.7983C50.0237 54.649 49.3625 54.7329 48.7912 55.0343L48.5078 55.2084L48.4367 55.2614L48.1848 55.4733ZM33.0162 33.5034C32.4457 33.9097 31.9608 34.4244 31.5892 35.0181C31.2176 35.6118 30.9666 36.2729 30.8505 36.9636C30.7344 37.6543 30.7555 38.3612 30.9125 39.0437C31.0696 39.7263 31.3595 40.3712 31.7658 40.9417C32.1721 41.5122 32.6868 41.9971 33.2805 42.3687C33.8742 42.7403 34.5353 42.9913 35.226 43.1074C35.9167 43.2235 36.6236 43.2025 37.3061 43.0454C37.9887 42.8884 38.6336 42.5984 39.2041 42.1921C40.3563 41.3715 41.1354 40.1268 41.3698 38.7319C41.6043 37.3369 41.2751 35.906 40.4545 34.7538C39.6339 33.6016 38.3892 32.8226 36.9943 32.5881C35.5993 32.3536 34.1684 32.6829 33.0162 33.5034Z" fill="white"/>
</g>
<path d="M159.32 117.424C108.885 118.517 86.985 109.174 60.6742 72.7252" stroke="white" stroke-width="4"/>
</g>
<defs>
<clipPath id="clip0_1708_2">
<rect width="82" height="132" fill="white"/>
</clipPath>
<clipPath id="clip1_1708_2">
<rect width="64" height="64" fill="white" transform="translate(0 57.2407) rotate(-67.7649)"/>
</clipPath>
</defs>
</svg>
