<svg width="42" height="42" viewBox="0 0 42 42" fill="none" xmlns="http://www.w3.org/2000/svg">
<path d="M35.3588 28.686C31.038 34.4417 21.812 32.4992 15.8953 32.7775C15.8953 32.7775 14.847 32.837 13.7935 33.0102C13.7935 33.0102 14.1925 32.8405 14.7018 32.6637C18.8563 31.227 20.8198 30.9382 23.345 29.6415C28.0875 27.2125 32.809 21.9187 33.7698 16.4202C31.9638 21.7087 26.4723 26.2605 21.4725 28.1085C18.0513 29.372 11.8615 30.6005 11.8598 30.6005L11.6095 30.4675C7.40075 28.42 7.27825 19.3025 14.924 16.3642C18.277 15.0762 21.4813 15.7832 25.1055 14.9205C28.9695 14.0017 33.446 11.1055 35.2643 7.31847C37.303 13.37 39.753 22.834 35.3588 28.686ZM35.4323 5.44597C34.9436 6.61811 34.318 7.72833 33.5685 8.75347C31.9397 7.07444 29.9902 5.73973 27.8357 4.82857C25.6811 3.9174 23.3655 3.44834 21.0263 3.44922C11.361 3.44922 3.5 11.3102 3.5 20.9737C3.49856 23.3843 3.99613 25.769 4.96141 27.9779C5.92669 30.1867 7.33876 32.1718 9.10875 33.8082L9.49375 34.1477C9.21313 33.8666 9.05563 33.4856 9.05587 33.0884C9.05612 32.6912 9.2141 32.3104 9.49507 32.0297C9.77604 31.7489 10.157 31.5913 10.5542 31.5914C10.9514 31.5914 11.3323 31.7493 11.6131 32.0301C11.894 32.311 12.0518 32.6919 12.0519 33.089C12.052 33.4862 11.8943 33.8672 11.6136 34.1482C11.3328 34.4291 10.952 34.5871 10.5548 34.5874C10.1576 34.5876 9.77659 34.4301 9.4955 34.1495L9.75625 34.3805C12.907 37.0442 16.9004 38.5039 21.0263 38.5C30.2628 38.5 37.849 31.311 38.4983 22.239C38.9778 17.7957 37.6653 12.1537 35.4323 5.44597Z" fill="url(#paint0_linear_1577_318)"/>
<defs>
<linearGradient id="paint0_linear_1577_318" x1="21.0483" y1="3.44922" x2="21.0483" y2="38.5" gradientUnits="userSpaceOnUse">
<stop stop-color="#1F7CEF"/>
<stop offset="1" stop-color="#124789"/>
</linearGradient>
</defs>
</svg>
