<svg width="14" height="14" viewBox="0 0 14 14" fill="none" xmlns="http://www.w3.org/2000/svg">
<g clip-path="url(#clip0_1623_37)">
<path d="M0.875 7C0.875 8.21141 1.23423 9.39562 1.90725 10.4029C2.58027 11.4101 3.53687 12.1952 4.65606 12.6588C5.77526 13.1223 7.00679 13.2436 8.19493 13.0073C9.38306 12.771 10.4744 12.1876 11.331 11.331C12.1876 10.4744 12.771 9.38306 13.0073 8.19493C13.2436 7.00679 13.1223 5.77526 12.6588 4.65606C12.1952 3.53687 11.4101 2.58027 10.4029 1.90725C9.39562 1.23423 8.21141 0.875 7 0.875C5.37555 0.875 3.81763 1.52031 2.66897 2.66897C1.52031 3.81763 0.875 5.37555 0.875 7ZM3.5 6.5625H8.81562L6.37437 4.10944L7 3.5L10.5 7L7 10.5L6.37437 9.87569L8.81562 7.4375H3.5V6.5625Z" fill="white"/>
</g>
<defs>
<clipPath id="clip0_1623_37">
<rect width="14" height="14" fill="white"/>
</clipPath>
</defs>
</svg>
