<svg width="972" height="26" viewBox="0 0 972 26" fill="none" xmlns="http://www.w3.org/2000/svg">
<g clip-path="url(#clip0_1874_22)">
<line x1="18.7072" y1="13.2371" x2="969.708" y2="13.2371" stroke="url(#paint0_linear_1874_22)" stroke-dasharray="2 2"/>
<g clip-path="url(#clip1_1874_22)">
<path fill-rule="evenodd" clip-rule="evenodd" d="M1.37896 15.4451L1.25425 15.2981C0.928884 14.905 0.499256 14.3837 0.47668 13.848C0.457249 13.4099 0.710064 12.9579 0.961748 12.5781L1.12649 12.3364C1.51821 11.7695 2.10429 11.094 2.89437 10.4712C4.45345 9.242 6.80302 8.22392 9.95743 8.66062C10.0632 8.56634 10.1601 8.46184 10.2542 8.3548L10.3927 8.19276C10.6054 7.94313 10.8181 7.69349 11.1005 7.521C11.5401 7.25255 12.1348 7.35536 12.6429 7.50384L12.8887 7.57975L13.199 7.68527C13.7737 7.88874 14.4972 8.22062 14.5256 8.89194C14.5435 9.29407 14.3478 9.68045 14.1376 10.0505L14.0587 10.1887C13.9559 10.3603 13.8619 10.5369 13.7768 10.7179C13.7301 10.8243 13.6847 10.9337 13.6407 11.046C13.7157 11.035 13.7913 11.0279 13.867 11.0245C14.2326 11.0088 14.6394 11.1367 14.9594 11.2582C15.3081 11.3918 15.6788 11.569 16.0138 11.742L16.1849 11.8317L16.5088 12.0078L16.7983 12.1715L17.1398 12.3729L17.3503 12.5018C17.4544 12.567 17.5412 12.6565 17.603 12.7627C17.6648 12.8689 17.6999 12.9885 17.7052 13.1113C17.7105 13.234 17.6859 13.3562 17.6334 13.4673C17.5809 13.5784 17.5022 13.6751 17.4041 13.749L17.138 13.9436L16.699 14.2513L16.372 14.4703L16.1375 14.6217C15.8191 14.8222 15.4651 15.0307 15.1291 15.1928C14.8208 15.3425 14.4265 15.505 14.0609 15.5207L13.9777 15.5227L13.9999 15.5696C14.0614 15.6921 14.1272 15.8125 14.197 15.9305L14.307 16.1179C14.5841 16.5858 14.8796 17.0869 14.9002 17.576C14.9263 18.1688 14.3904 18.5434 13.8822 18.7978L13.6825 18.8935L13.3819 19.0248L13.1435 19.1216C12.6506 19.3127 12.067 19.4664 11.6059 19.2368C11.3617 19.1146 11.1575 18.9334 10.9603 18.7423L10.8422 18.6269C10.6892 18.4764 10.5373 18.3258 10.3694 18.1993C7.26381 18.9065 4.83531 18.0945 3.17616 17.0041C2.50965 16.5677 1.90513 16.0433 1.37896 15.4451ZM13.228 13.4143C13.2558 13.5585 13.3254 13.6913 13.4281 13.7964C13.5307 13.9014 13.662 13.974 13.8055 14.0051L13.9038 14.02L13.9973 14.0212L14.1465 13.9973C14.4808 13.9213 14.8263 13.7089 15.1362 13.4986L15.4332 13.2947L15.5693 13.2029L15.4405 13.1314L15.1608 12.9726C14.7729 12.7542 14.3299 12.5259 13.9321 12.5224C13.7506 12.5301 13.5781 12.6035 13.4467 12.7289C13.3152 12.8543 13.2337 13.0231 13.2173 13.204L13.215 13.2975L13.2166 13.3224L13.228 13.4143ZM5.7223 13.6271C5.73075 13.8239 5.77789 14.0171 5.86101 14.1957C5.94414 14.3743 6.06163 14.5347 6.20677 14.6679C6.35191 14.8011 6.52186 14.9044 6.70692 14.9719C6.89198 15.0394 7.08853 15.0698 7.28533 15.0614C7.48214 15.0529 7.67535 15.0058 7.85394 14.9226C8.03253 14.8395 8.193 14.722 8.32619 14.5769C8.45937 14.4317 8.56267 14.2618 8.63017 14.0767C8.69767 13.8917 8.72807 13.6951 8.71961 13.4983C8.70254 13.1008 8.52827 12.7264 8.23514 12.4575C7.94202 12.1885 7.55404 12.047 7.15658 12.064C6.75911 12.0811 6.3847 12.2554 6.11572 12.5485C5.84674 12.8416 5.70522 13.2296 5.7223 13.6271Z" fill="#9AC2E8"/>
</g>
</g>
<defs>
<linearGradient id="paint0_linear_1874_22" x1="18.7072" y1="14.2371" x2="969.708" y2="14.2371" gradientUnits="userSpaceOnUse">
<stop stop-color="#1F7CEF"/>
<stop offset="0.663462" stop-color="#1F7CEF"/>
<stop offset="1" stop-color="white"/>
</linearGradient>
<clipPath id="clip0_1874_22">
<rect width="971.708" height="25.0509" fill="white"/>
</clipPath>
<clipPath id="clip1_1874_22">
<rect width="18" height="18" fill="white" transform="translate(6.26428 25.0508) rotate(-124.767)"/>
</clipPath>
</defs>
</svg>
