<svg width="36" height="36" viewBox="0 0 36 36" fill="none" xmlns="http://www.w3.org/2000/svg">
<path opacity="0.3" d="M18 6C28.392 6 34.887 17.25 29.691 26.25C28.5062 28.3022 26.802 30.0064 24.7498 31.1913C22.6976 32.3761 20.3697 32.9999 18 33C7.608 33 1.113 21.75 6.309 12.75C7.49384 10.6978 9.198 8.99361 11.2502 7.80874C13.3024 6.62387 15.6303 6.00006 18 6Z" fill="#E4E5E5"/>
<path d="M11.049 4.45651C11.2479 4.80103 11.3018 5.21045 11.1989 5.59471C11.0959 5.97897 10.8445 6.30659 10.5 6.50551C8.93957 7.41057 7.5533 8.58704 6.40651 9.97951C6.28353 10.1379 6.13003 10.27 5.9551 10.3681C5.78017 10.4661 5.58736 10.5281 5.38806 10.5503C5.18876 10.5726 4.98703 10.5546 4.79479 10.4976C4.60255 10.4405 4.42371 10.3454 4.26883 10.2181C4.11396 10.0907 3.9862 9.93351 3.89311 9.75589C3.80003 9.57828 3.7435 9.38379 3.72687 9.18395C3.71025 8.98411 3.73386 8.78296 3.79632 8.5924C3.85878 8.40184 3.95882 8.22574 4.09051 8.07451C5.46247 6.40251 7.12453 4.99146 8.99701 3.90901C9.16757 3.81023 9.35593 3.74603 9.55132 3.72008C9.74671 3.69414 9.94529 3.70696 10.1357 3.7578C10.3262 3.80865 10.5047 3.89653 10.6612 4.01642C10.8176 4.13631 10.9489 4.28585 11.0475 4.45651H11.049ZM27 3.90901C28.8729 4.99086 30.5355 6.40141 31.908 8.07301C32.1475 8.38147 32.2573 8.77117 32.214 9.15928C32.1706 9.54739 31.9777 9.90331 31.6761 10.1514C31.3745 10.3995 30.988 10.5201 30.5989 10.4878C30.2097 10.4554 29.8485 10.2725 29.592 9.97801C28.4474 8.58379 27.0607 7.40746 25.4985 6.50551C25.1542 6.3062 24.9032 5.97828 24.8006 5.59387C24.6981 5.20947 24.7524 4.80008 24.9518 4.45576C25.1511 4.11144 25.479 3.86041 25.8634 3.75787C26.2478 3.65533 26.6557 3.7097 27 3.90901ZM18 12C17.6326 12.0001 17.278 12.1349 17.0035 12.3791C16.7289 12.6232 16.5535 12.9596 16.5105 13.3245L16.5 13.5V19.479C16.4955 19.812 16.602 20.139 16.803 20.4045L16.938 20.5605L20.097 23.718C20.3663 23.9899 20.7294 24.1486 21.1118 24.1615C21.4943 24.1745 21.8673 24.0408 22.1544 23.7878C22.4415 23.5348 22.6211 23.1816 22.6563 22.8006C22.6916 22.4195 22.5798 22.0394 22.344 21.738L22.218 21.597L19.5 18.879V13.5C19.5 13.1022 19.342 12.7207 19.0607 12.4394C18.7794 12.158 18.3978 12 18 12Z" fill="#E4E5E5"/>
</svg>
