<svg width="42" height="42" viewBox="0 0 42 42" fill="none" xmlns="http://www.w3.org/2000/svg">
<path d="M31.5 35.875C31.7321 35.875 31.9546 35.7828 32.1187 35.6187C32.2828 35.4546 32.375 35.2321 32.375 35V17.5H24.5C23.5717 17.5 22.6815 17.1313 22.0251 16.4749C21.3687 15.8185 21 14.9283 21 14V6.125H10.5C10.2679 6.125 10.0454 6.21719 9.88128 6.38128C9.71719 6.54538 9.625 6.76794 9.625 7V25.5972C8.84257 25.0523 7.94371 24.6976 7 24.5612V7C7 6.07174 7.36875 5.1815 8.02513 4.52513C8.6815 3.86875 9.57174 3.5 10.5 3.5H21.301C21.35 3.50117 21.3978 3.50525 21.4445 3.51225C21.4795 3.51808 21.5139 3.52217 21.5477 3.5245C21.924 3.55075 22.295 3.6225 22.6398 3.766C22.7395 3.808 22.8357 3.864 22.9303 3.91825L23.0177 3.969L23.1 4.011C23.1484 4.03447 23.1957 4.06017 23.2418 4.088C23.3783 4.18075 23.5007 4.291 23.625 4.403L23.688 4.4555L23.7738 4.5255L33.9745 14.7245C34.6309 15.3807 34.9998 16.2708 35 17.199V35C35 35.9283 34.6312 36.8185 33.9749 37.4749C33.3185 38.1312 32.4283 38.5 31.5 38.5H28.462C29.1146 37.7608 29.541 36.8496 29.6905 35.875H31.5ZM30.4115 14.875L23.625 8.08675V14C23.625 14.2321 23.7172 14.4546 23.8813 14.6187C24.0454 14.7828 24.2679 14.875 24.5 14.875H30.4115ZM21.091 35.875C21.4463 37.38 22.799 38.5 24.4125 38.5H24.5875C25.0356 38.5 25.4794 38.4117 25.8934 38.2402C26.3074 38.0687 26.6836 37.8174 27.0005 37.5005C27.3174 37.1836 27.5687 36.8074 27.7402 36.3934C27.9117 35.9794 28 35.5356 28 35.0875V34.678C27.9997 34.1493 27.8626 33.6296 27.6019 33.1696C27.3413 32.7096 26.9659 32.3249 26.5125 32.053L23.8368 30.4465C23.7722 30.4076 23.7188 30.3527 23.6817 30.2871C23.6446 30.2215 23.625 30.1474 23.625 30.072V29.6625C23.625 29.4536 23.708 29.2533 23.8557 29.1057C24.0033 28.958 24.2036 28.875 24.4125 28.875H24.5875C24.7964 28.875 24.9967 28.958 25.1443 29.1057C25.292 29.2533 25.375 29.4536 25.375 29.6625V29.75C25.375 30.0981 25.5133 30.4319 25.7594 30.6781C26.0056 30.9242 26.3394 31.0625 26.6875 31.0625C27.0356 31.0625 27.3694 30.9242 27.6156 30.6781C27.8617 30.4319 28 30.0981 28 29.75V29.6625C28 28.7575 27.6405 27.8895 27.0005 27.2495C26.3605 26.6095 25.4926 26.25 24.5875 26.25H24.4125C23.5074 26.25 22.6395 26.6095 21.9995 27.2495C21.3595 27.8895 21 28.7575 21 29.6625V30.072C21 31.1465 21.5635 32.144 22.4875 32.697L25.1632 34.3035C25.2278 34.3424 25.2812 34.3973 25.3183 34.4629C25.3554 34.5285 25.375 34.6026 25.375 34.678V35.0875C25.375 35.2964 25.292 35.4967 25.1443 35.6443C24.9967 35.792 24.7964 35.875 24.5875 35.875H24.4125C24.2036 35.875 24.0033 35.792 23.8557 35.6443C23.708 35.4967 23.625 35.2964 23.625 35.0875V35C23.625 34.6519 23.4867 34.3181 23.2406 34.0719C22.9944 33.8258 22.6606 33.6875 22.3125 33.6875C21.9644 33.6875 21.6306 33.8258 21.3844 34.0719C21.1383 34.3181 21 34.6519 21 35V35.0875C21 35.3593 21.0303 35.6218 21.091 35.875ZM10.4125 38.5L10.5 38.4125V38.5H10.4125ZM12.6823 36.75C12.398 36.2421 12.2492 35.6696 12.25 35.0875V35C12.25 34.6519 12.3883 34.3181 12.6344 34.0719C12.8806 33.8258 13.2144 33.6875 13.5625 33.6875C13.9106 33.6875 14.2444 33.8258 14.4906 34.0719C14.7367 34.3181 14.875 34.6519 14.875 35V35.0875C14.875 35.5215 15.2268 35.875 15.6625 35.875H15.8375C16.0464 35.875 16.2467 35.792 16.3943 35.6443C16.542 35.4967 16.625 35.2964 16.625 35.0875V34.678C16.625 34.6026 16.6054 34.5285 16.5683 34.4629C16.5312 34.3973 16.4778 34.3424 16.4132 34.3035L13.7358 32.697C13.2826 32.4249 12.9077 32.0401 12.6473 31.5801C12.3869 31.1201 12.2501 30.6006 12.25 30.072V29.6625C12.25 29.2144 12.3383 28.7706 12.5098 28.3566C12.6813 27.9426 12.9326 27.5664 13.2495 27.2495C13.5664 26.9326 13.9426 26.6813 14.3566 26.5098C14.7706 26.3383 15.2144 26.25 15.6625 26.25H15.8375C16.7426 26.25 17.6105 26.6095 18.2505 27.2495C18.8905 27.8895 19.25 28.7575 19.25 29.6625V29.75C19.25 30.0981 19.1117 30.4319 18.8656 30.6781C18.6194 30.9242 18.2856 31.0625 17.9375 31.0625C17.5894 31.0625 17.2556 30.9242 17.0094 30.6781C16.7633 30.4319 16.625 30.0981 16.625 29.75V29.6625C16.625 29.4536 16.542 29.2533 16.3943 29.1057C16.2467 28.958 16.0464 28.875 15.8375 28.875H15.6625C15.4536 28.875 15.2533 28.958 15.1057 29.1057C14.958 29.2533 14.875 29.4536 14.875 29.6625V30.072C14.875 30.1474 14.8946 30.2215 14.9317 30.2871C14.9688 30.3527 15.0222 30.4076 15.0868 30.4465L17.7642 32.053C18.6865 32.606 19.25 33.6035 19.25 34.678V35.0875C19.2493 35.6694 19.1005 36.2415 18.8178 36.75C18.5218 37.2806 18.0895 37.7225 17.5655 38.0302C17.0416 38.3378 16.4451 38.5 15.8375 38.5H15.6625C15.0549 38.5 14.4584 38.3378 13.9345 38.0302C13.4105 37.7225 12.9782 37.2806 12.6823 36.75ZM10.164 35.8085C10.381 35.2905 10.5 34.7218 10.5 34.125C10.5 33.7769 10.3617 33.4431 10.1156 33.1969C9.86944 32.9508 9.5356 32.8125 9.1875 32.8125C8.8394 32.8125 8.50556 32.9508 8.25942 33.1969C8.01328 33.4431 7.875 33.7769 7.875 34.125C7.875 34.5891 7.69063 35.0343 7.36244 35.3624C7.03425 35.6906 6.58913 35.875 6.125 35.875C5.66087 35.875 5.21575 35.6906 4.88756 35.3624C4.55937 35.0343 4.375 34.5891 4.375 34.125V30.625C4.375 30.1609 4.55937 29.7157 4.88756 29.3876C5.21575 29.0594 5.66087 28.875 6.125 28.875C6.58913 28.875 7.03425 29.0594 7.36244 29.3876C7.69063 29.7157 7.875 30.1609 7.875 30.625C7.87733 30.8665 7.93567 31.0853 8.05 31.2812C8.19428 31.5319 8.41729 31.7279 8.6844 31.8387C8.9515 31.9496 9.24775 31.9691 9.52709 31.8943C9.80644 31.8194 10.0533 31.6544 10.2292 31.4249C10.4051 31.1954 10.5003 30.9142 10.5 30.625C10.5 29.4647 10.0391 28.3519 9.21859 27.5314C8.39812 26.7109 7.28532 26.25 6.125 26.25C4.96468 26.25 3.85188 26.7109 3.03141 27.5314C2.21094 28.3519 1.75 29.4647 1.75 30.625V34.125C1.74951 35.1367 2.09967 36.1173 2.74085 36.8999C3.38204 37.6824 4.27462 38.2186 5.26665 38.4171C6.25868 38.6156 7.28884 38.4641 8.18177 37.9885C9.07469 37.5129 9.77519 36.7425 10.164 35.8085Z" fill="url(#paint0_linear_1577_343)"/>
<defs>
<linearGradient id="paint0_linear_1577_343" x1="18.375" y1="3.5" x2="18.375" y2="38.5021" gradientUnits="userSpaceOnUse">
<stop stop-color="#1F7CEF"/>
<stop offset="1" stop-color="#124789"/>
</linearGradient>
</defs>
</svg>
