<svg width="26" height="26" viewBox="0 0 26 26" fill="none" xmlns="http://www.w3.org/2000/svg">
<path d="M11.9167 17.3333C11.6293 17.3333 11.3538 17.4474 11.1506 17.6506C10.9475 17.8538 10.8333 18.1293 10.8333 18.4166C10.8333 18.7039 10.9475 18.9795 11.1506 19.1827C11.3538 19.3858 11.6293 19.5 11.9167 19.5H14.0833C14.3707 19.5 14.6462 19.3858 14.8494 19.1827C15.0525 18.9795 15.1667 18.7039 15.1667 18.4166C15.1667 18.1293 15.0525 17.8538 14.8494 17.6506C14.6462 17.4474 14.3707 17.3333 14.0833 17.3333H11.9167ZM9.75 2.16663C8.88805 2.16663 8.0614 2.50904 7.4519 3.11853C6.84241 3.72802 6.5 4.55467 6.5 5.41663V20.5833C6.5 21.4452 6.84241 22.2719 7.4519 22.8814C8.0614 23.4909 8.88805 23.8333 9.75 23.8333H16.25C17.112 23.8333 17.9386 23.4909 18.5481 22.8814C19.1576 22.2719 19.5 21.4452 19.5 20.5833V5.41663C19.5 4.55467 19.1576 3.72802 18.5481 3.11853C17.9386 2.50904 17.112 2.16663 16.25 2.16663H9.75ZM8.66667 5.41663C8.66667 5.12931 8.7808 4.85376 8.98397 4.65059C9.18713 4.44743 9.46268 4.33329 9.75 4.33329H16.25C16.5373 4.33329 16.8129 4.44743 17.016 4.65059C17.2192 4.85376 17.3333 5.12931 17.3333 5.41663V20.5833C17.3333 20.8706 17.2192 21.1462 17.016 21.3493C16.8129 21.5525 16.5373 21.6666 16.25 21.6666H9.75C9.46268 21.6666 9.18713 21.5525 8.98397 21.3493C8.7808 21.1462 8.66667 20.8706 8.66667 20.5833V5.41663Z" fill="black" fill-opacity="0.58"/>
</svg>
