<svg width="96" height="96" viewBox="0 0 96 96" fill="none" xmlns="http://www.w3.org/2000/svg">
<path d="M24.7 41.3314C19.868 42.9634 16.88 45.2114 16.88 47.7034C16.88 51.0954 22.436 54.0514 30.64 55.5834C27.592 57.1274 25.772 59.0834 25.772 61.2154C25.772 66.1874 35.72 70.2194 47.992 70.2194C50.972 70.2253 53.9469 69.975 56.884 69.4714M30.644 55.5874C34.903 56.3477 39.2218 56.7225 43.548 56.7074C50.38 56.7074 56.608 55.8434 61.328 54.4154M65.768 40.4954C60.124 42.1634 52.252 43.1994 43.548 43.1994C26.368 43.1994 12.436 39.1674 12.436 34.1914C12.436 30.3514 20.744 27.0714 32.436 25.7754" stroke="white" stroke-width="6" stroke-linecap="round" stroke-linejoin="round"/>
<path d="M88 76.28C88 82.752 70.092 88 48 88C25.908 88 8 82.752 8 76.28C8 71.68 14.828 67.696 28 65.776M75.04 35.152C91.896 30.776 94.304 57.024 70.22 65.776M70.232 8C67.272 8.492 61.7 11.26 63.12 18.372C64.544 25.48 62.528 29.236 61.344 30.224M52.452 8C49.488 8.592 43.916 11.912 45.34 20.444C46.764 28.976 44.748 31.26 43.564 32.444" stroke="white" stroke-width="6" stroke-linecap="round" stroke-linejoin="round"/>
</svg>
