<svg width="23" height="23" viewBox="0 0 23 23" fill="none" xmlns="http://www.w3.org/2000/svg">
<path d="M11.5 1.91667C16.7929 1.91667 21.0833 6.20713 21.0833 11.5C21.0833 16.7929 16.7929 21.0833 11.5 21.0833C6.20711 21.0833 1.91666 16.7929 1.91666 11.5C1.91666 6.20713 6.20711 1.91667 11.5 1.91667ZM11.5 3.83333C9.46666 3.83333 7.51662 4.64107 6.07884 6.07885C4.64106 7.51663 3.83332 9.46667 3.83332 11.5C3.83332 13.5333 4.64106 15.4834 6.07884 16.9212C7.51662 18.3589 9.46666 19.1667 11.5 19.1667C13.5333 19.1667 15.4834 18.3589 16.9211 16.9212C18.3589 15.4834 19.1667 13.5333 19.1667 11.5C19.1667 9.46667 18.3589 7.51663 16.9211 6.07885C15.4834 4.64107 13.5333 3.83333 11.5 3.83333ZM11.5 15.3333C11.7542 15.3333 11.9979 15.4343 12.1776 15.614C12.3574 15.7937 12.4583 16.0375 12.4583 16.2917C12.4583 16.5458 12.3574 16.7896 12.1776 16.9693C11.9979 17.149 11.7542 17.25 11.5 17.25C11.2458 17.25 11.0021 17.149 10.8223 16.9693C10.6426 16.7896 10.5417 16.5458 10.5417 16.2917C10.5417 16.0375 10.6426 15.7937 10.8223 15.614C11.0021 15.4343 11.2458 15.3333 11.5 15.3333ZM11.5 6.22917C12.3072 6.22919 13.0892 6.5103 13.7116 7.0242C14.3341 7.5381 14.7581 8.25272 14.911 9.0453C15.0638 9.83789 14.9359 10.659 14.5492 11.3675C14.1625 12.076 13.5411 12.6277 12.7918 12.9279C12.6808 12.9687 12.5808 13.0347 12.4995 13.1205C12.4574 13.1685 12.4507 13.2298 12.4516 13.293L12.4583 13.4167C12.4581 13.6609 12.3645 13.8959 12.1968 14.0735C12.0292 14.2511 11.8 14.358 11.5562 14.3723C11.3123 14.3866 11.0722 14.3073 10.8849 14.1505C10.6976 13.9937 10.5772 13.7713 10.5484 13.5288L10.5417 13.4167V13.1771C10.5417 12.0721 11.4329 11.409 12.0788 11.1492C12.3417 11.0443 12.571 10.8697 12.7422 10.6442C12.9133 10.4187 13.0198 10.1509 13.0502 9.86945C13.0806 9.58802 13.0337 9.30362 12.9147 9.0468C12.7957 8.78998 12.6089 8.57044 12.3745 8.41175C12.1401 8.25306 11.8669 8.16122 11.5842 8.14609C11.3016 8.13096 11.0201 8.19312 10.7701 8.32588C10.5201 8.45864 10.311 8.65699 10.1652 8.89964C10.0194 9.14228 9.94251 9.42006 9.9427 9.70313C9.9427 9.95729 9.84173 10.201 9.66201 10.3808C9.48229 10.5605 9.23853 10.6615 8.98436 10.6615C8.7302 10.6615 8.48644 10.5605 8.30672 10.3808C8.127 10.201 8.02603 9.95729 8.02603 9.70313C8.02603 8.78177 8.39204 7.89816 9.04353 7.24667C9.69502 6.59517 10.5786 6.22917 11.5 6.22917Z" fill="#424242"/>
</svg>
