<svg width="35" height="35" viewBox="0 0 35 35" fill="none" xmlns="http://www.w3.org/2000/svg">
<path fill-rule="evenodd" clip-rule="evenodd" d="M8.44899 8.44882C7.63637 9.26144 6.99176 10.2262 6.55198 11.2879C6.11219 12.3496 5.88583 13.4876 5.88583 14.6368C5.88583 15.786 6.11219 16.924 6.55198 17.9857C6.99176 19.0475 7.63637 20.0122 8.44899 20.8248C9.26161 21.6374 10.2263 22.282 11.2881 22.7218C12.3498 23.1616 13.4878 23.388 14.637 23.388C15.7862 23.388 16.9242 23.1616 17.9859 22.7218C19.0476 22.282 20.0124 21.6374 20.825 20.8248C22.4189 19.1746 23.3008 16.9643 23.2809 14.6701C23.261 12.3758 22.3407 10.1812 20.7184 8.55891C19.0961 6.93659 16.9015 6.01636 14.6072 5.99642C12.313 5.97649 10.1028 6.85844 8.45249 8.45232M19.5895 19.5893C18.9421 20.2512 18.1699 20.7781 17.3175 21.1395C16.4651 21.5009 15.5495 21.6896 14.6236 21.6947C13.6978 21.6998 12.7802 21.5212 11.9238 21.1692C11.0675 20.8172 10.2895 20.2989 9.63491 19.6441C8.98029 18.9894 8.46207 18.2113 8.11023 17.3549C7.75839 16.4986 7.57994 15.5809 7.5852 14.655C7.59047 13.7292 7.77934 12.8136 8.14089 11.9613C8.50243 11.109 9.02947 10.3368 9.69149 9.68957C11.0093 8.40119 12.782 7.68447 14.6249 7.69495C16.4678 7.70542 18.2322 8.44225 19.5353 9.74552C20.8383 11.0488 21.5748 12.8134 21.585 14.6563C21.5951 16.4992 20.8781 18.2718 19.5895 19.5893Z" fill="black"/>
<path d="M19.586 22.097C19.2578 21.7686 19.0736 21.3233 19.0737 20.8591C19.0739 20.3949 19.2585 19.9497 19.5868 19.6216C19.9152 19.2935 20.3605 19.1092 20.8247 19.1094C21.2889 19.1095 21.7341 19.2941 22.0622 19.6225L27.0112 24.5732C27.1784 24.7347 27.3117 24.9278 27.4034 25.1413C27.4951 25.3548 27.5434 25.5844 27.5454 25.8168C27.5474 26.0491 27.5031 26.2796 27.4151 26.4946C27.3272 26.7097 27.1972 26.9051 27.0329 27.0694C26.8686 27.2337 26.6732 27.3637 26.4581 27.4517C26.2431 27.5397 26.0126 27.5839 25.7803 27.5819C25.5479 27.5799 25.3183 27.5316 25.1048 27.4399C24.8912 27.3482 24.6981 27.2149 24.5367 27.0477L19.586 22.097Z" fill="black"/>
</svg>
