<svg width="42" height="42" viewBox="0 0 42 42" fill="none" xmlns="http://www.w3.org/2000/svg">
<path opacity="0.2" d="M34.125 14.4375H24.9375V5.25L34.125 14.4375Z" fill="url(#paint0_linear_1577_349)"/>
<path d="M35.0536 13.5089L25.8661 4.32141C25.7441 4.19956 25.5993 4.10294 25.44 4.03707C25.2807 3.9712 25.1099 3.93736 24.9375 3.9375H9.1875C8.49131 3.9375 7.82363 4.21406 7.33134 4.70634C6.83906 5.19863 6.5625 5.86631 6.5625 6.5625V18.375C6.5625 18.7231 6.70078 19.0569 6.94692 19.3031C7.19306 19.5492 7.5269 19.6875 7.875 19.6875C8.2231 19.6875 8.55694 19.5492 8.80308 19.3031C9.04922 19.0569 9.1875 18.7231 9.1875 18.375V6.5625H23.625V14.4375C23.625 14.7856 23.7633 15.1194 24.0094 15.3656C24.2556 15.6117 24.5894 15.75 24.9375 15.75H32.8125V35.4375H28.875C28.5269 35.4375 28.1931 35.5758 27.9469 35.8219C27.7008 36.0681 27.5625 36.4019 27.5625 36.75C27.5625 37.0981 27.7008 37.4319 27.9469 37.6781C28.1931 37.9242 28.5269 38.0625 28.875 38.0625H32.8125C33.5087 38.0625 34.1764 37.7859 34.6687 37.2937C35.1609 36.8014 35.4375 36.1337 35.4375 35.4375V14.4375C35.4376 14.2651 35.4038 14.0943 35.3379 13.935C35.2721 13.7757 35.1754 13.6309 35.0536 13.5089ZM26.25 8.41805L30.957 13.125H26.25V8.41805ZM24.2501 32.2071C24.1989 32.7091 24.0372 33.1935 23.7765 33.6256C23.5158 34.0576 23.1626 34.4265 22.7423 34.7058C21.8909 35.2734 20.8359 35.4375 19.8729 35.4375C19.035 35.4325 18.201 35.3222 17.3906 35.1094C17.2227 35.0648 17.0652 34.9873 16.9274 34.8815C16.7896 34.7756 16.6743 34.6434 16.588 34.4925C16.5017 34.3417 16.4462 34.1753 16.4247 34.0028C16.4033 33.8304 16.4163 33.6554 16.463 33.488C16.5097 33.3206 16.5892 33.1642 16.6968 33.0278C16.8044 32.8913 16.9381 32.7776 17.09 32.6933C17.2419 32.6089 17.4091 32.5556 17.5818 32.5363C17.7545 32.5171 17.9293 32.5323 18.0961 32.5812C18.8147 32.778 20.557 33.0241 21.3035 32.5221C21.4479 32.4253 21.6038 32.2727 21.6546 31.8773C21.712 31.4393 21.5381 31.2047 19.5579 30.6321C18.0239 30.1891 15.4563 29.4459 15.7845 26.8406C15.8356 26.3485 15.9944 25.8737 16.2496 25.4498C16.5048 25.026 16.8501 24.6634 17.261 24.3879C19.2035 23.0754 22.2994 23.8448 22.6472 23.9351C22.984 24.0236 23.2718 24.2423 23.4473 24.5431C23.6228 24.8438 23.6717 25.202 23.5832 25.5388C23.4946 25.8756 23.2759 26.1634 22.9752 26.3389C22.6744 26.5144 22.3162 26.5633 21.9795 26.4748C21.2428 26.2828 19.4808 26.0548 18.7261 26.5666C18.6272 26.6334 18.5457 26.7229 18.4886 26.8277C18.4315 26.9325 18.4004 27.0494 18.398 27.1688C18.3783 27.3164 18.375 27.3476 18.5801 27.4805C18.9591 27.7249 19.6383 27.9202 20.2945 28.1105C21.9007 28.5748 24.6176 29.3672 24.2501 32.2071ZM13.125 24.9375V31.1719C13.125 32.3032 12.6756 33.3882 11.8756 34.1881C11.0757 34.9881 9.99069 35.4375 8.85938 35.4375C7.72806 35.4375 6.64308 34.9881 5.84312 34.1881C5.04316 33.3882 4.59375 32.3032 4.59375 31.1719C4.59375 30.8238 4.73203 30.4899 4.97817 30.2438C5.22431 29.9977 5.55815 29.8594 5.90625 29.8594C6.25435 29.8594 6.58819 29.9977 6.83433 30.2438C7.08047 30.4899 7.21875 30.8238 7.21875 31.1719C7.21875 31.607 7.3916 32.0243 7.69928 32.332C8.00695 32.6397 8.42425 32.8125 8.85938 32.8125C9.2945 32.8125 9.7118 32.6397 10.0195 32.332C10.3271 32.0243 10.5 31.607 10.5 31.1719V24.9375C10.5 24.5894 10.6383 24.2556 10.8844 24.0094C11.1306 23.7633 11.4644 23.625 11.8125 23.625C12.1606 23.625 12.4944 23.7633 12.7406 24.0094C12.9867 24.2556 13.125 24.5894 13.125 24.9375Z" fill="url(#paint1_linear_1577_349)"/>
<defs>
<linearGradient id="paint0_linear_1577_349" x1="29.5312" y1="5.25" x2="29.5312" y2="14.4375" gradientUnits="userSpaceOnUse">
<stop stop-color="#1F7CEF"/>
<stop offset="1" stop-color="#124789"/>
</linearGradient>
<linearGradient id="paint1_linear_1577_349" x1="20.0156" y1="3.9375" x2="20.0156" y2="38.0625" gradientUnits="userSpaceOnUse">
<stop stop-color="#1F7CEF"/>
<stop offset="1" stop-color="#124789"/>
</linearGradient>
</defs>
</svg>
