<svg width="48" height="48" viewBox="0 0 48 48" fill="none" xmlns="http://www.w3.org/2000/svg">
<circle cx="24" cy="24" r="23.5" stroke="white" stroke-opacity="0.46" stroke-dasharray="2 2"/>
<circle cx="24" cy="24" r="17" fill="white"/>
<g clip-path="url(#clip0_1785_4)">
<path fill-rule="evenodd" clip-rule="evenodd" d="M42.7181 9.35985L42.6908 9.44462C42.6158 9.66814 42.5159 9.96383 42.3111 10.1032C42.1438 10.2176 41.9048 10.2286 41.6944 10.2223L41.5593 10.2166C41.2414 10.2009 40.8334 10.1355 40.3964 9.97715C39.5339 9.66472 38.5617 8.99054 37.9644 7.6459C37.9016 7.62734 37.8369 7.61478 37.772 7.60392L37.6747 7.58906C37.5248 7.5664 37.375 7.54375 37.2385 7.47493C37.026 7.36779 36.9214 7.10929 36.8559 6.87369L36.8257 6.75868L36.7915 6.61116C36.7314 6.33601 36.6853 5.97113 36.9419 5.79637C37.0954 5.69136 37.2948 5.674 37.4912 5.66632L37.5647 5.66363C37.6571 5.66213 37.7494 5.65602 37.8411 5.64531C37.8943 5.63772 37.9483 5.62887 38.0031 5.61877C37.9805 5.59199 37.9593 5.56409 37.9395 5.53518C37.8442 5.39551 37.7953 5.20466 37.765 5.04941C37.7325 4.87999 37.7117 4.69128 37.698 4.51764L37.6915 4.42861L37.6817 4.25854L37.6754 4.10501L37.6712 3.9219L37.6705 3.80786C37.6707 3.75109 37.6847 3.69522 37.7113 3.64508C37.738 3.59493 37.7764 3.55201 37.8233 3.52001C37.8702 3.48802 37.9241 3.46791 37.9805 3.46143C38.0369 3.45494 38.0941 3.46227 38.147 3.48279L38.2882 3.53979L38.516 3.63713L38.6817 3.71215L38.7982 3.76731C38.9545 3.84339 39.1226 3.93157 39.2681 4.02393C39.402 4.10847 39.5619 4.22366 39.6572 4.36332L39.6782 4.39551L39.6912 4.37539C39.7243 4.32137 39.7555 4.26622 39.7849 4.21006L39.8316 4.1212C39.9478 3.8984 40.0724 3.66028 40.2594 3.53303C40.4858 3.3783 40.7634 3.49739 40.9871 3.63486L41.0733 3.68994L41.1981 3.77593L41.2942 3.84592C41.4894 3.99281 41.6919 4.18447 41.7141 4.42142C41.7257 4.54703 41.7043 4.67136 41.6774 4.79534L41.6608 4.8698C41.639 4.96654 41.617 5.06287 41.6082 5.15961C42.6427 6.20631 42.9158 7.35746 42.8921 8.27446C42.8832 8.64244 42.8247 9.00754 42.7181 9.35985ZM39.0333 5.20363C39.0831 5.15756 39.1183 5.09787 39.1345 5.03197C39.1507 4.96607 39.1473 4.89687 39.1245 4.83294L39.1064 4.79072L39.0841 4.75372L39.0383 4.70099C38.927 4.58828 38.7595 4.50444 38.6014 4.43403L38.449 4.36715L38.3797 4.33609L38.3831 4.40408L38.3889 4.55259C38.3977 4.75808 38.4161 4.9876 38.5116 5.14459C38.5589 5.21393 38.6297 5.26376 38.711 5.28481C38.7922 5.30587 38.8784 5.29672 38.9534 5.25906L38.9906 5.23719L39 5.23049L39.0333 5.20363ZM40.946 8.098C41.0212 8.04672 41.0855 7.98114 41.1354 7.90498C41.1852 7.82883 41.2196 7.74361 41.2365 7.65418C41.2534 7.56475 41.2525 7.47286 41.2339 7.38377C41.2153 7.29468 41.1794 7.21012 41.1281 7.13493C41.0768 7.05973 41.0112 6.99538 40.9351 6.94553C40.8589 6.89569 40.7737 6.86133 40.6842 6.84442C40.5948 6.82751 40.5029 6.82838 40.4138 6.84699C40.3247 6.86559 40.2402 6.90156 40.165 6.95284C40.0131 7.0564 39.9086 7.21605 39.8745 7.39666C39.8403 7.57728 39.8793 7.76406 39.9829 7.91592C40.0865 8.06777 40.2461 8.17227 40.4267 8.20642C40.6073 8.24057 40.7941 8.20157 40.946 8.098Z" fill="white"/>
</g>
<path d="M22.2 22.71V18.12C22.2 16.89 22.89 16.02 24 16.02C25.11 16.02 25.8 16.89 25.8 18.12V22.71H30.39C31.65 22.71 32.49 23.43 32.49 24.51C32.49 25.59 31.65 26.31 30.39 26.31H25.8V30.9C25.8 32.13 25.11 33 24 33C22.89 33 22.2 32.13 22.2 30.9V26.31H17.61C16.35 26.31 15.51 25.41 15.51 24.51C15.51 23.43 16.35 22.71 17.61 22.71H22.2Z" fill="#3589F1"/>
<defs>
<clipPath id="clip0_1785_4">
<rect width="8.31657" height="8.31657" fill="white" transform="translate(45.2981 5.10126) rotate(113.4)"/>
</clipPath>
</defs>
</svg>
