<svg width="60" height="58" viewBox="0 0 60 58" fill="none" xmlns="http://www.w3.org/2000/svg">
<circle cx="29" cy="29" r="28.5" stroke="#2680EE" stroke-opacity="0.46" stroke-dasharray="2 2"/>
<circle cx="29" cy="29" r="24" fill="url(#paint0_linear_1732_9)"/>
<circle cx="29" cy="29" r="20" fill="white"/>
<g clip-path="url(#clip0_1732_9)">
<path fill-rule="evenodd" clip-rule="evenodd" d="M56.6489 17.5384L56.6161 17.6403C56.5259 17.9091 56.4057 18.2646 56.1595 18.4323C55.9584 18.5698 55.6709 18.583 55.4179 18.5755L55.2556 18.5685C54.8732 18.5498 54.3826 18.4711 53.8572 18.2807C52.8201 17.905 51.6511 17.0943 50.9329 15.4775C50.8574 15.4552 50.7797 15.4401 50.7016 15.427L50.5845 15.4092C50.4044 15.3819 50.2242 15.3547 50.0601 15.2719C49.8045 15.1431 49.6788 14.8323 49.6 14.549L49.5638 14.4107L49.5227 14.2333C49.4503 13.9025 49.3949 13.4637 49.7035 13.2536C49.888 13.1273 50.1277 13.1065 50.364 13.0972L50.4524 13.094C50.5635 13.0922 50.6744 13.0849 50.7847 13.072C50.8486 13.0628 50.9136 13.0522 50.9795 13.0401C50.9523 13.0079 50.9268 12.9743 50.903 12.9395C50.7885 12.7716 50.7296 12.5421 50.6932 12.3555C50.6541 12.1517 50.6291 11.9248 50.6126 11.716L50.6048 11.609L50.593 11.4045L50.5854 11.2199L50.5804 10.9997L50.5796 10.8626C50.5798 10.7943 50.5967 10.7272 50.6287 10.6669C50.6607 10.6066 50.7068 10.5549 50.7632 10.5165C50.8196 10.478 50.8845 10.4538 50.9523 10.446C51.0201 10.4382 51.0888 10.4471 51.1525 10.4717L51.3223 10.5403L51.5962 10.6573L51.7954 10.7475L51.9355 10.8138C52.1235 10.9053 52.3256 11.0113 52.5006 11.1224C52.6616 11.2241 52.8538 11.3626 52.9684 11.5305L52.9937 11.5692L53.0093 11.545C53.0491 11.48 53.0866 11.4137 53.1219 11.3462L53.1781 11.2394C53.3178 10.9715 53.4677 10.6851 53.6925 10.5321C53.9647 10.3461 54.2985 10.4893 54.5675 10.6546L54.6711 10.7208L54.8212 10.8242L54.9368 10.9084C55.1714 11.085 55.415 11.3154 55.4417 11.6003C55.4556 11.7514 55.4299 11.9009 55.3975 12.05L55.3776 12.1395C55.3514 12.2558 55.3249 12.3716 55.3143 12.488C56.5582 13.7465 56.8866 15.1307 56.8581 16.2333C56.8474 16.6758 56.777 17.1148 56.6489 17.5384ZM52.2182 12.5409C52.2781 12.4855 52.3204 12.4137 52.3399 12.3345C52.3594 12.2552 52.3552 12.172 52.3278 12.0952L52.3061 12.0444L52.2793 11.9999L52.2242 11.9365C52.0904 11.801 51.8889 11.7002 51.6989 11.6155L51.5156 11.5351L51.4323 11.4977L51.4364 11.5795L51.4434 11.7581C51.4539 12.0051 51.476 12.2811 51.5909 12.4699C51.6478 12.5533 51.7329 12.6132 51.8306 12.6385C51.9283 12.6638 52.0319 12.6528 52.1221 12.6075L52.1669 12.5812L52.1782 12.5732L52.2182 12.5409ZM54.5181 16.0211C54.6085 15.9595 54.6858 15.8806 54.7458 15.789C54.8057 15.6975 54.847 15.595 54.8674 15.4875C54.8877 15.3799 54.8866 15.2695 54.8643 15.1623C54.8419 15.0552 54.7987 14.9535 54.737 14.8631C54.6753 14.7727 54.5965 14.6953 54.5049 14.6354C54.4133 14.5755 54.3109 14.5341 54.2033 14.5138C54.0958 14.4935 53.9853 14.4945 53.8782 14.5169C53.7711 14.5393 53.6694 14.5825 53.579 14.6442C53.3964 14.7687 53.2707 14.9607 53.2297 15.1778C53.1886 15.395 53.2355 15.6196 53.36 15.8022C53.4846 15.9848 53.6765 16.1104 53.8937 16.1515C54.1109 16.1926 54.3355 16.1457 54.5181 16.0211Z" fill="#92BFF6"/>
</g>
<defs>
<linearGradient id="paint0_linear_1732_9" x1="29" y1="5" x2="29" y2="53" gradientUnits="userSpaceOnUse">
<stop stop-color="#1474EB"/>
<stop offset="1" stop-color="#76B3FD"/>
</linearGradient>
<clipPath id="clip0_1732_9">
<rect width="10" height="10" fill="white" transform="translate(59.7512 12.4177) rotate(113.4)"/>
</clipPath>
</defs>
</svg>
