<svg width="42" height="42" viewBox="0 0 42 42" fill="none" xmlns="http://www.w3.org/2000/svg">
<path d="M36.3195 8.386L31.3495 33.4285C31.2531 33.914 31.0214 34.3624 30.6811 34.7219C30.3408 35.0814 29.9058 35.3374 29.4262 35.4603L22.3055 37.289C21.4491 37.5089 20.5509 37.5089 19.6945 37.289L12.572 35.4603C12.0933 35.3369 11.6592 35.081 11.3196 34.7219C10.98 34.3628 10.7487 33.915 10.6522 33.4303L5.6805 8.386C5.60497 8.00542 5.61474 7.61283 5.70912 7.23648C5.8035 6.86013 5.98014 6.50939 6.22632 6.20948C6.4725 5.90958 6.7821 5.66799 7.13284 5.50208C7.48358 5.33617 7.86675 5.25008 8.25475 5.25H33.7452C34.1333 5.25008 34.5164 5.33617 34.8672 5.50208C35.2179 5.66799 35.5275 5.90958 35.7737 6.20948C36.0199 6.50939 36.1965 6.86013 36.2909 7.23648C36.3853 7.61283 36.395 8.00542 36.3195 8.386Z" stroke="url(#paint0_linear_1577_337)" stroke-width="2.625" stroke-linecap="round" stroke-linejoin="round"/>
<path d="M29.75 12.0417H13.531C13.3755 12.0416 13.2219 12.0759 13.0813 12.1423C12.9407 12.2088 12.8166 12.3056 12.7179 12.4258C12.6193 12.546 12.5486 12.6867 12.511 12.8375C12.4733 12.9884 12.4697 13.1458 12.5002 13.2982L14.0035 20.8092H27.9965L26.4372 28.6108C26.3782 28.9057 26.2441 29.1805 26.0479 29.4086C25.8518 29.6367 25.6001 29.8103 25.3172 29.9127L21.5967 31.2603C21.2117 31.3997 20.79 31.3997 20.405 31.2603L16.6827 29.9127C16.3999 29.8103 16.1482 29.6367 15.952 29.4086C15.7559 29.1805 15.6218 28.9057 15.5627 28.6108L15.1707 26.6525" stroke="url(#paint1_linear_1577_337)" stroke-width="2.625" stroke-linecap="round" stroke-linejoin="round"/>
<defs>
<linearGradient id="paint0_linear_1577_337" x1="21" y1="5.25" x2="21" y2="37.4539" gradientUnits="userSpaceOnUse">
<stop stop-color="#1F7CEF"/>
<stop offset="1" stop-color="#124789"/>
</linearGradient>
<linearGradient id="paint1_linear_1577_337" x1="21.1149" y1="12.0417" x2="21.1149" y2="31.3648" gradientUnits="userSpaceOnUse">
<stop stop-color="#1F7CEF"/>
<stop offset="1" stop-color="#124789"/>
</linearGradient>
</defs>
</svg>
