<svg width="55" height="42" viewBox="0 0 55 42" fill="none" xmlns="http://www.w3.org/2000/svg">
<path d="M24.048 30.368C24.048 36.488 19.016 41.52 12.896 41.52C4.056 41.52 0.112 33.632 0.112 24.384C0.112 15.136 2.832 10.512 7.048 6.16001C9.088 4.25601 15.208 0.312012 19.424 0.312012C22.416 0.312012 24.048 2.21601 24.048 4.39202C24.048 10.376 10.312 7.24801 9.632 21.12C10.856 20.44 12.352 19.896 14.256 19.896C20.512 19.896 24.048 24.928 24.048 30.368ZM54.92 30.368C54.92 36.488 49.888 41.52 43.768 41.52C34.928 41.52 30.984 33.632 30.984 24.384C30.984 15.136 33.704 10.512 37.92 6.16001C39.96 4.25601 46.08 0.312012 50.296 0.312012C53.288 0.312012 54.92 2.21601 54.92 4.39202C54.92 10.376 41.184 7.24801 40.504 21.12C41.728 20.44 43.224 19.896 45.128 19.896C51.384 19.896 54.92 24.928 54.92 30.368Z" fill="#2D8BFF"/>
</svg>
