<svg width="42" height="42" viewBox="0 0 42 42" fill="none" xmlns="http://www.w3.org/2000/svg">
<path d="M27.3665 7.99037L27.4645 8.04637C26.138 8.74637 22.3475 11.0039 22.3475 13.8774C22.3475 14.8469 22.9023 15.7814 23.422 16.6599C23.8805 17.4334 24.3128 18.1614 24.3128 18.8264C24.3128 20.5011 22.68 21.8014 21.7578 22.3999L21.5828 22.2984C21.931 21.8731 22.3598 21.1609 22.3598 20.4014C22.3598 19.3549 21.8225 18.5184 21.2783 17.6696C20.7148 16.7929 20.1443 15.9021 20.1443 14.7471C20.1443 10.7361 25.5955 8.58362 27.3665 7.99037ZM20.2003 10.1114C22.393 8.15137 24.7888 6.00937 24.7888 2.78762C24.7888 1.32987 24.192 0.398873 23.8963 0.026123L23.8 0.080373C23.87 0.370873 23.975 0.906373 23.975 1.60637C23.975 4.53937 21.4865 6.59387 19.0785 8.58537C16.8193 10.4544 14.63 12.2639 14.63 14.6859C14.63 18.1596 18.0565 20.2964 19.5038 21.1994L19.614 21.2694L19.7015 21.2169C19.6233 21.1305 19.5405 21.0419 19.453 20.9509C18.34 19.7661 16.6495 17.9689 16.6495 15.2196C16.6495 13.2894 18.3523 11.7651 20.2003 10.1114ZM19.411 27.4504C22.498 27.4504 24.6575 27.0076 25.6165 26.7364L27.0725 27.5764C25.6848 28.2816 22.6083 28.8189 19.404 28.8189C15.6363 28.8189 11.5168 28.0104 11.5045 26.9324C11.4958 26.3374 12.8433 25.9419 14.2958 25.6864L14.3833 25.7371C14.3833 25.7371 13.8915 25.9139 13.8968 26.3199C13.9038 26.9324 16.3818 27.4504 19.4093 27.4504M13.2335 31.2496C13.2335 30.5374 14.7018 30.1996 15.3738 30.0649L15.4613 30.1174C15.3458 30.2031 15.2828 30.3204 15.2828 30.4201C15.2828 30.8874 16.9103 31.3144 19.4058 31.3144C21.6423 31.3144 22.8848 31.0396 23.6233 30.8629L25.3558 31.8656C25.277 31.9216 23.5708 32.9944 19.4023 32.9944C16.373 32.9944 13.2335 32.2384 13.2335 31.2496ZM28.1593 28.2256C30.2243 27.0479 32.291 25.6549 32.4083 23.4184C32.4853 21.9501 31.136 20.8739 29.6608 21.1609L29.7395 20.9649V20.9614C30.1105 20.8494 30.569 20.7584 31.0818 20.7584C32.732 20.7584 33.9973 21.7471 34.1583 23.1314C34.4838 25.9069 30.5498 27.7129 28.3465 28.3341L28.1593 28.2256ZM31.6155 33.4546C31.633 35.3621 25.144 36.4961 19.3445 36.5469C14.3378 36.5906 6.265 35.6456 6.2475 33.7381C6.237 32.4204 9.7475 31.5086 11.655 31.2461L11.8563 31.3599C11.8563 31.3599 9.0125 32.0196 9.02125 33.2184C9.03175 34.4136 15.015 35.4479 19.3358 35.4111C26.0295 35.3516 30.5603 34.2614 31.0958 32.7826L31.1903 32.7284C31.3863 32.8719 31.6103 33.1081 31.6155 33.4546ZM11.2525 37.3396C13.7286 37.7352 16.2333 37.9255 18.7408 37.9084C29.6048 37.8139 32.6708 35.1434 33.1433 34.5624L33.2255 34.6114C33.1135 36.7254 27.3683 38.4824 20.2825 38.5436C16.6758 38.5751 13.3928 38.1586 11.0338 37.4674L11.2525 37.3396ZM15.806 21.0944C13.9178 21.2396 9.863 21.8399 9.863 22.9074C9.863 23.7159 13.58 24.8551 19.404 24.8551C24.6435 24.8551 27.951 23.8664 28.7228 23.4901L27.5975 22.8339C26.7925 23.0526 23.8018 23.7194 19.404 23.7194C16.814 23.7194 12.3515 23.2416 12.3515 22.5119C12.3515 21.8574 15.1358 21.3534 15.9355 21.2081L15.9863 21.1994L15.806 21.0944Z" fill="url(#paint0_linear_1577_194)"/>
<defs>
<linearGradient id="paint0_linear_1577_194" x1="20.2124" y1="0.026123" x2="20.2124" y2="38.5453" gradientUnits="userSpaceOnUse">
<stop stop-color="#1F7CEF"/>
<stop offset="1" stop-color="#124789"/>
</linearGradient>
</defs>
</svg>
