<svg width="1246" height="58" viewBox="0 0 1246 58" fill="none" xmlns="http://www.w3.org/2000/svg">
<g clip-path="url(#clip0_1882_19)">
<path fill-rule="evenodd" clip-rule="evenodd" d="M1241 22.1924L1241.1 22.0234C1241.36 21.573 1241.7 20.9759 1241.63 20.4348C1241.58 19.992 1241.25 19.5823 1240.93 19.2449L1240.72 19.031C1240.23 18.5302 1239.53 17.9539 1238.63 17.4658C1236.85 16.5024 1234.32 15.8873 1231.23 16.8703C1231.11 16.794 1230.99 16.7059 1230.88 16.6148L1230.71 16.4762C1230.46 16.2626 1230.2 16.049 1229.89 15.9248C1229.4 15.7315 1228.82 15.9374 1228.34 16.1741L1228.1 16.2927L1227.81 16.4521C1227.27 16.7555 1226.6 17.2133 1226.69 17.8915C1226.74 18.2979 1227 18.6516 1227.28 18.9864L1227.38 19.1114C1227.51 19.2657 1227.64 19.4266 1227.75 19.5934C1227.82 19.692 1227.88 19.7939 1227.95 19.8989C1227.87 19.9009 1227.79 19.9068 1227.72 19.9165C1227.35 19.9638 1226.96 20.1624 1226.66 20.3396C1226.33 20.5338 1225.99 20.7756 1225.69 21.0069L1225.53 21.1265L1225.24 21.359L1224.98 21.5733L1224.67 21.8342L1224.48 21.9998C1224.39 22.0832 1224.31 22.188 1224.27 22.3052C1224.23 22.4223 1224.21 22.5484 1224.23 22.6724C1224.24 22.7964 1224.29 22.9147 1224.36 23.0171C1224.43 23.1195 1224.53 23.2028 1224.64 23.26L1224.94 23.4092L1225.43 23.642L1225.8 23.8051L1226.06 23.9163C1226.42 24.0625 1226.81 24.2104 1227.17 24.3149C1227.51 24.4118 1227.93 24.5066 1228.3 24.4593L1228.38 24.4469L1228.37 24.4977C1228.33 24.6312 1228.28 24.7633 1228.23 24.8937L1228.16 25.1007C1227.96 25.6178 1227.75 26.1714 1227.81 26.6655C1227.89 27.2646 1228.49 27.5476 1229.04 27.7149L1229.26 27.7764L1229.59 27.8562L1229.84 27.9121C1230.37 28.0186 1230.98 28.0718 1231.4 27.7619C1231.63 27.5972 1231.8 27.3802 1231.97 27.1545L1232.06 27.0183C1232.19 26.8409 1232.32 26.6637 1232.46 26.5078C1235.7 26.6805 1238 25.4466 1239.47 24.0664C1240.06 23.5136 1240.58 22.8832 1241 22.1924ZM1228.77 22.2028C1228.77 22.3522 1228.72 22.4975 1228.64 22.6206C1228.55 22.7436 1228.43 22.8391 1228.29 22.8951L1228.2 22.927L1228.1 22.9444L1227.95 22.9462C1227.6 22.9277 1227.22 22.7744 1226.87 22.6171L1226.54 22.4639L1226.39 22.3953L1226.5 22.3014L1226.76 22.0937C1227.11 21.8077 1227.51 21.5022 1227.91 21.4299C1228.09 21.4064 1228.28 21.4502 1228.43 21.5532C1228.59 21.6562 1228.7 21.8114 1228.74 21.99L1228.76 22.0834L1228.77 22.1087L1228.77 22.2028ZM1236.33 21.1194C1236.36 21.3183 1236.35 21.5202 1236.29 21.7137C1236.24 21.9071 1236.15 22.0884 1236.03 22.247C1235.91 22.4057 1235.75 22.5386 1235.58 22.6383C1235.41 22.738 1235.21 22.8024 1235.02 22.8279C1234.82 22.8534 1234.61 22.8396 1234.42 22.787C1234.23 22.7345 1234.05 22.6444 1233.89 22.5219C1233.73 22.3993 1233.6 22.2467 1233.5 22.0728C1233.4 21.8989 1233.33 21.707 1233.31 21.5082C1233.25 21.1066 1233.37 20.701 1233.61 20.3806C1233.86 20.0602 1234.22 19.8512 1234.63 19.7997C1235.03 19.7481 1235.43 19.8582 1235.75 20.1057C1236.07 20.3532 1236.28 20.7179 1236.33 21.1194Z" fill="#D2D2D2"/>
</g>
<path d="M4 23.0017C4 23.0017 92.3239 40.8931 151.52 39.901C211.385 38.8977 244.644 23.1911 304.516 23.0017C367.264 22.8032 402.143 40.0179 464.891 39.901C525.914 39.7874 559.817 22.9357 620.839 23.0017C680.903 23.0666 714.263 40.0373 774.327 39.901C832.473 39.7691 864.749 22.9465 922.895 23.0017C980.275 23.0562 1012.13 38.7726 1069.5 39.901C1129.07 41.0729 1222.5 23.0017 1222.5 23.0017" stroke="#D2D2D2" stroke-dasharray="2 2"/>
<defs>
<clipPath id="clip0_1882_19">
<rect width="18.3182" height="18.3182" fill="white" transform="matrix(0.422495 -0.906365 -0.906365 -0.422495 1237.76 32.6699)"/>
</clipPath>
</defs>
</svg>
