<svg width="16" height="16" viewBox="0 0 16 16" fill="none" xmlns="http://www.w3.org/2000/svg">
<path fill-rule="evenodd" clip-rule="evenodd" d="M3.7686 4.13714C3.77078 4.13646 3.77235 4.13466 3.77368 4.13281V4.13281C3.77479 4.13127 3.77568 4.12958 3.77633 4.12778L3.78915 4.09225C3.79006 4.08973 3.7913 4.08734 3.79283 4.08513L3.79367 4.08392C3.79592 4.08068 3.7989 4.07803 3.80238 4.07619V4.07619C3.80369 4.07549 3.80506 4.07491 3.80647 4.07446L3.84207 4.06312C3.8453 4.06209 3.84864 4.06104 3.85117 4.05878C3.85307 4.05708 3.85422 4.05514 3.85462 4.05295C3.85495 4.05111 3.85437 4.04927 3.85366 4.04754V4.04754C3.85285 4.04553 3.8517 4.04369 3.85026 4.04207L3.69492 3.86736C3.69283 3.86501 3.69041 3.86297 3.68775 3.8613L3.68647 3.8605C3.68346 3.85861 3.68009 3.85737 3.67657 3.85684V3.85684C3.67404 3.85646 3.67146 3.85646 3.66892 3.85684L3.60475 3.86641C3.60259 3.86673 3.60051 3.86744 3.5986 3.8685L3.59799 3.86884C3.59527 3.87034 3.59305 3.87261 3.59161 3.87537V3.87537C3.59088 3.87676 3.59036 3.87826 3.59007 3.87981L3.57808 3.94355C3.57749 3.94668 3.57739 3.94989 3.57778 3.95306L3.57784 3.95356C3.57833 3.95747 3.57961 3.96123 3.58162 3.96462V3.96462C3.58294 3.96684 3.58455 3.96887 3.58641 3.97066L3.75361 4.13101C3.75633 4.13363 3.75921 4.13633 3.76287 4.13724C3.76488 4.13774 3.76679 4.13771 3.7686 4.13714ZM3.70422 4.28684C3.70694 4.28622 3.70903 4.28417 3.71072 4.28195V4.28195C3.712 4.28027 3.71301 4.27839 3.71371 4.2764L3.75047 4.172C3.75113 4.17012 3.75149 4.16814 3.75153 4.16614L3.75154 4.16524C3.75159 4.16258 3.75095 4.15995 3.74967 4.15761V4.15761C3.74892 4.15623 3.74795 4.15498 3.74682 4.15389L3.57515 3.98992C3.57363 3.98847 3.57186 3.98729 3.56993 3.98646L3.56952 3.98628C3.56728 3.98531 3.56485 3.98486 3.56241 3.98498V3.98498C3.5609 3.98505 3.5594 3.98534 3.55796 3.98584L3.4474 4.0241C3.44379 4.02534 3.44009 4.02667 3.43736 4.02933C3.43528 4.03136 3.43399 4.03365 3.43347 4.03623C3.43291 4.03906 3.43401 4.04189 3.43537 4.04444V4.04444C3.43656 4.04669 3.43813 4.04872 3.43999 4.05046L3.687 4.28011C3.68993 4.28283 3.69305 4.28554 3.6969 4.2866C3.69943 4.2873 3.70187 4.28738 3.70422 4.28684ZM3.99811 4.00455C4.00095 4.00391 4.00343 4.0022 4.00504 3.99977C4.0061 3.99818 4.00672 3.99635 4.00688 3.99447C4.00704 3.99252 4.00639 3.99061 4.0057 3.98878V3.98878C4.00438 3.98528 4.00245 3.98205 4.00001 3.97921L3.77712 3.72051C3.77362 3.71726 3.7699 3.71579 3.76594 3.71608C3.76246 3.71634 3.75967 3.71884 3.7575 3.72157V3.72157C3.75617 3.72324 3.7551 3.7251 3.75433 3.72709L3.71096 3.83858C3.71044 3.83993 3.71008 3.84134 3.70989 3.84277L3.70979 3.84357C3.70943 3.84632 3.70983 3.84912 3.71096 3.85166V3.85166C3.7116 3.85309 3.71245 3.85441 3.71349 3.85558L3.87179 4.03355C3.87284 4.03473 3.87405 4.03575 3.87539 4.03659V4.03659C3.87794 4.03819 3.88088 4.03906 3.88389 4.03912L3.88432 4.03913C3.88627 4.03916 3.88822 4.03888 3.89008 4.0383L3.99811 4.00455Z" fill="#8BBBF7"/>
<path fill-rule="evenodd" clip-rule="evenodd" d="M9.52966 14.6507L9.41344 14.7375C9.10296 14.9636 8.69131 15.262 8.28784 15.254C7.9578 15.2481 7.63003 15.0371 7.35648 14.8304L7.18258 14.6953C6.77505 14.3746 6.29492 13.9028 5.86396 13.2803C5.05186 12.1075 4.41792 10.4024 4.77553 8.20629C4.80826 8.00531 4.7617 7.79652 4.6174 7.65284V7.65284L4.50214 7.54127C4.32453 7.36984 4.14693 7.19841 4.03052 6.97823C3.84937 6.63547 3.95434 6.19352 4.08957 5.81881L4.15807 5.63766L4.25181 5.40948C4.43146 4.98731 4.71451 4.4593 5.22014 4.46926C5.52305 4.47459 5.80418 4.63959 6.07234 4.81473L6.17249 4.8805C6.2966 4.96566 6.42488 5.04457 6.55687 5.11692C6.58518 5.13151 6.6138 5.14598 6.64272 5.16033C6.71106 5.19425 6.79004 5.13975 6.79142 5.06347V5.06347C6.79663 4.7881 6.91168 4.48847 7.01792 4.25374C7.13454 3.99804 7.28497 3.72782 7.4305 3.48425L7.50591 3.35992L7.65327 3.12477L7.78978 2.91497L7.95694 2.66782L8.06361 2.51573C8.11744 2.44053 8.18875 2.37955 8.2714 2.33806C8.35404 2.29656 8.44554 2.27579 8.538 2.27754C8.63046 2.27929 8.72111 2.3035 8.80213 2.34809C8.88315 2.39268 8.9521 2.45631 9.00305 2.5335L9.13683 2.74242L9.3475 3.08654L9.49676 3.34247L9.59949 3.52566C9.73532 3.77415 9.87542 4.04987 9.98149 4.30977C10.0796 4.54837 10.1832 4.85214 10.178 5.1275L10.1771 5.15117C10.1764 5.16949 10.1948 5.18246 10.2118 5.17565V5.17565C10.3068 5.13512 10.4003 5.09135 10.4922 5.04442L10.6381 4.97053C11.0025 4.78419 11.3927 4.58557 11.7611 4.59294C12.2076 4.60098 12.464 5.02102 12.6314 5.41463L12.6939 5.56911L12.7786 5.80106L12.8402 5.98467C12.9608 6.36382 13.049 6.80942 12.855 7.14509C12.7518 7.32279 12.6061 7.46775 12.4534 7.60698L12.3612 7.69028V7.69028C12.1346 7.89369 12.0501 8.19884 12.0818 8.50169C12.3049 10.6325 11.6199 12.2594 10.7846 13.3733C10.4257 13.8537 10.0036 14.2833 9.52966 14.6507ZM8.55678 5.65496C8.66641 5.64078 8.76947 5.59472 8.85316 5.52249C8.93685 5.45026 8.99749 5.35505 9.02756 5.24867L9.04331 5.17551V5.17551C9.04685 5.12883 9.04635 5.08192 9.04181 5.03532L9.0376 4.99216C8.99611 4.73747 8.85269 4.46808 8.70917 4.22543L8.56984 3.99285L8.56339 3.98187C8.53767 3.93813 8.47482 3.93698 8.44753 3.97976V3.97976L8.31515 4.18245C8.13297 4.46365 7.94085 4.78579 7.91963 5.0844C7.91701 5.2211 7.96409 5.3541 8.05213 5.45871C8.14017 5.56331 8.26318 5.63241 8.39832 5.65316L8.46847 5.65928L8.48723 5.65924L8.55678 5.65496ZM8.36654 11.3032C8.51478 11.306 8.66212 11.2796 8.80015 11.2255C8.93819 11.1714 9.06421 11.0906 9.17103 10.9878C9.27785 10.885 9.36337 10.7621 9.42271 10.6262C9.48205 10.4904 9.51405 10.3441 9.51688 10.1959C9.51971 10.0477 9.49331 9.90033 9.4392 9.7623C9.38509 9.62426 9.30431 9.49824 9.2015 9.39142C9.09868 9.2846 8.97583 9.19908 8.83996 9.13974C8.70409 9.0804 8.55786 9.0484 8.40963 9.04557C8.11025 9.03986 7.82087 9.1533 7.60514 9.36095C7.38941 9.5686 7.26501 9.85345 7.25929 10.1528C7.25358 10.4522 7.36702 10.7416 7.57467 10.9573C7.78232 11.173 8.06717 11.2974 8.36654 11.3032Z" fill="#8BBBF7"/>
</svg>
