<svg width="385" height="29" viewBox="0 0 385 29" fill="none" xmlns="http://www.w3.org/2000/svg">
<path d="M14 13C14 13 17.7849 15.4927 26.9364 11.5C31.7309 9.40826 47.0356 0.543877 53.5606 1.08698C72.7547 2.68459 73.4765 27.6956 92.6728 27.9973C112.791 28.3134 123.974 0.900874 144.093 1.08698C163.658 1.26797 174.528 28.1023 194.093 27.9973C213.351 27.8939 224.047 0.869968 243.305 1.08698C261.948 1.29707 272.296 28.0853 290.94 27.9973C309.337 27.9105 319.549 2.88391 337.943 1.08698C357.045 -0.779075 384 15 384 15" stroke="url(#paint0_linear_1937_206)" stroke-opacity="0.29" stroke-dasharray="2 2"/>
<g clip-path="url(#clip0_1937_206)">
<path fill-rule="evenodd" clip-rule="evenodd" d="M3.95774 12.0021L3.86956 12.1049C3.63946 12.38 3.33563 12.7447 3.31779 13.1211C3.30252 13.4289 3.47852 13.7475 3.65399 14.0153L3.76887 14.1858C4.04205 14.5856 4.45142 15.0625 5.00433 15.503C6.09542 16.3726 7.74279 17.0966 9.96109 16.8014C10.0351 16.868 10.1028 16.9418 10.1685 17.0174L10.2652 17.1318C10.4138 17.308 10.5624 17.4842 10.7602 17.6064C11.0681 17.7967 11.4864 17.7267 11.844 17.6242L12.017 17.5717L12.2355 17.4987C12.64 17.3579 13.1497 17.1273 13.1721 16.6557C13.1862 16.3731 13.0501 16.1009 12.9038 15.8401L12.8488 15.7427C12.7772 15.6217 12.7118 15.4972 12.6527 15.3697C12.6202 15.2948 12.5887 15.2178 12.5582 15.1387C12.6109 15.1467 12.664 15.152 12.7172 15.1546C12.974 15.167 13.2604 15.0786 13.4857 14.9944C13.7312 14.9018 13.9924 14.7786 14.2284 14.6583L14.349 14.5959L14.5773 14.4734L14.7813 14.3594L15.0221 14.2191L15.1704 14.1293C15.2439 14.0839 15.3051 14.0213 15.349 13.9469C15.3928 13.8725 15.4179 13.7886 15.4221 13.7023C15.4263 13.6161 15.4094 13.5301 15.3729 13.4518C15.3365 13.3736 15.2815 13.3053 15.2128 13.253L15.0266 13.1153L14.7192 12.8975L14.4902 12.7423L14.326 12.6351C14.103 12.493 13.8549 12.3452 13.6195 12.2301C13.4034 12.1237 13.1269 12.0081 12.87 11.9957L12.8115 11.994L12.8273 11.9612C12.871 11.8753 12.9176 11.7909 12.9671 11.7082L13.0451 11.5769C13.2416 11.2491 13.4511 10.8981 13.4674 10.5545C13.4879 10.138 13.1127 9.87281 12.7565 9.69215L12.6165 9.62418L12.4057 9.53078L12.2386 9.46187C11.8929 9.32575 11.4833 9.21563 11.1585 9.37528C10.9864 9.46024 10.8423 9.58684 10.703 9.72039L10.6196 9.80105C10.5115 9.90627 10.4042 10.0115 10.2857 10.0998C8.10595 9.59137 6.39638 10.153 5.22643 10.9132C4.75645 11.2174 4.32969 11.5837 3.95774 12.0021ZM12.2769 13.4729C12.297 13.3717 12.3464 13.2785 12.4189 13.2051C12.4915 13.1317 12.584 13.0812 12.685 13.0598L12.7541 13.0497L12.8198 13.0492L12.9245 13.0666C13.1592 13.1212 13.4012 13.2717 13.6182 13.4206L13.8261 13.565L13.9215 13.6301L13.8307 13.6798L13.6335 13.7904C13.3601 13.9425 13.048 14.1012 12.7685 14.1023C12.641 14.0961 12.52 14.0439 12.4281 13.9553C12.3362 13.8668 12.2795 13.7478 12.2687 13.6206L12.2674 13.5549L12.2686 13.5374L12.2769 13.4729ZM7.00323 13.2957C7.0099 13.1574 7.04374 13.0218 7.10281 12.8966C7.16188 12.7714 7.24503 12.6591 7.34752 12.566C7.45001 12.473 7.56982 12.401 7.70011 12.3543C7.83041 12.3075 7.96864 12.2869 8.10691 12.2936C8.24518 12.3002 8.38079 12.3341 8.50598 12.3931C8.63117 12.4522 8.74351 12.5354 8.83657 12.6378C8.92962 12.7403 9.00159 12.8601 9.04834 12.9904C9.0951 13.1207 9.11573 13.259 9.10906 13.3972C9.0956 13.6765 8.97176 13.9389 8.76478 14.1269C8.5578 14.3148 8.28464 14.4128 8.00539 14.3994C7.72614 14.3859 7.46367 14.2621 7.27573 14.0551C7.08779 13.8481 6.98977 13.575 7.00323 13.2957Z" fill="#D2D2D2" fill-opacity="0.4"/>
</g>
<defs>
<linearGradient id="paint0_linear_1937_206" x1="387" y1="14.5" x2="-3.67982" y2="14.5" gradientUnits="userSpaceOnUse">
<stop stop-color="#D2D2D2" stop-opacity="0"/>
<stop offset="0.183919" stop-color="#D2D2D2"/>
<stop offset="0.851043" stop-color="#D2D2D2"/>
<stop offset="1" stop-color="#D2D2D2"/>
</linearGradient>
<clipPath id="clip0_1937_206">
<rect width="12.6493" height="12.6493" fill="white" transform="matrix(-0.574534 0.818481 0.818481 0.574534 7.42619 5.26987)"/>
</clipPath>
</defs>
</svg>
