<svg width="1242" height="28" viewBox="0 0 1242 28" fill="none" xmlns="http://www.w3.org/2000/svg">
<path d="M0 13.8556C35.0187 13.8556 23.6817 13.8556 51.3944 13.8556C61.6291 13.8556 70.5413 13.8556 75.0761 13.8556C85.1534 13.8556 90.6961 1.00002 82.6341 1C74.6953 0.999976 80.6186 13.8556 89.6882 13.8556C98.7578 13.8556 106.577 13.8556 120.424 13.8556C168.291 13.8556 540 15 540 15" stroke="#D2D2D2" stroke-dasharray="2 2"/>
<path d="M540 15C574.99 15 563.662 15 591.352 15C601.578 15 610.483 15 615.014 15C625.083 15 630.621 2.00002 622.566 2C614.633 1.99998 620.552 15 629.614 15C638.676 15 646.489 15 660.324 15C708.152 15 1051 14 1051 14" stroke="#D2D2D2" stroke-dasharray="2 2"/>
<path d="M1050 14C1088.09 14 1075.76 14 1105.9 14C1117.03 14 1126.73 14 1131.66 14C1142.62 14 1148.65 1.00002 1139.88 1C1131.24 0.999976 1137.69 14 1147.55 14C1157.42 14 1165.92 14 1180.98 14C1233.05 14 1214.96 14 1214.96 14" stroke="#D2D2D2" stroke-dasharray="2 2"/>
<g clip-path="url(#clip0_1792_5)">
<path fill-rule="evenodd" clip-rule="evenodd" d="M1236.38 12.016L1236.5 12.1675C1236.81 12.5722 1237.23 13.1089 1237.23 13.647C1237.24 14.0872 1236.97 14.5325 1236.7 14.9054L1236.53 15.1426C1236.12 15.6987 1235.51 16.3575 1234.7 16.9569C1233.09 18.14 1230.7 19.086 1227.55 18.5468C1227.44 18.638 1227.34 18.7397 1227.25 18.8441L1227.1 19.0022C1226.88 19.2458 1226.66 19.4894 1226.37 19.6534C1225.92 19.9086 1225.33 19.7864 1224.82 19.6212L1224.58 19.5371L1224.27 19.4213C1223.7 19.1988 1222.99 18.8427 1222.98 18.1684C1222.97 17.7644 1223.18 17.3831 1223.41 17.0186L1223.49 16.8825C1223.6 16.7137 1223.7 16.5395 1223.79 16.3607C1223.84 16.2555 1223.89 16.1472 1223.94 16.036C1223.86 16.0445 1223.78 16.0493 1223.71 16.0502C1223.34 16.0543 1222.94 15.913 1222.62 15.7808C1222.27 15.6356 1221.91 15.4459 1221.58 15.2617L1221.41 15.1662L1221.09 14.9792L1220.8 14.8057L1220.47 14.5928L1220.26 14.4567C1220.16 14.388 1220.07 14.2953 1220.02 14.1869C1219.96 14.0784 1219.93 13.9572 1219.92 13.8339C1219.92 13.7106 1219.95 13.5888 1220.01 13.479C1220.06 13.3693 1220.15 13.2748 1220.25 13.2038L1220.52 13.0171L1220.97 12.7225L1221.31 12.5133L1221.55 12.369C1221.87 12.178 1222.23 11.9802 1222.58 11.8284C1222.89 11.6881 1223.29 11.5378 1223.66 11.5337L1223.74 11.5344L1223.72 11.4867C1223.66 11.3618 1223.6 11.2389 1223.53 11.1183L1223.43 10.9268C1223.17 10.4485 1222.89 9.93638 1222.88 9.44513C1222.87 8.84957 1223.42 8.49105 1223.94 8.25212L1224.15 8.16255L1224.45 8.04044L1224.69 7.95097C1225.19 7.77504 1225.78 7.63963 1226.24 7.88473C1226.48 8.01511 1226.68 8.20345 1226.87 8.40145L1226.99 8.521C1227.13 8.6769 1227.28 8.83281 1227.45 8.96512C1230.58 8.35519 1232.99 9.24755 1234.62 10.3945C1235.28 10.8537 1235.87 11.3991 1236.38 12.016ZM1224.43 13.6735C1224.4 13.5279 1224.34 13.3924 1224.24 13.2837C1224.14 13.1751 1224.01 13.0981 1223.87 13.0623L1223.77 13.0442L1223.67 13.0399L1223.52 13.0592C1223.19 13.1247 1222.83 13.3267 1222.51 13.5277L1222.21 13.7227L1222.07 13.8105L1222.2 13.8863L1222.47 14.0546C1222.85 14.2861 1223.29 14.5293 1223.69 14.5456C1223.87 14.5436 1224.05 14.4755 1224.18 14.354C1224.32 14.2324 1224.41 14.0657 1224.43 13.8848L1224.43 13.791L1224.43 13.766L1224.43 13.6735ZM1231.96 13.7006C1231.96 13.5029 1231.92 13.3075 1231.84 13.1257C1231.76 12.9439 1231.65 12.7792 1231.51 12.6409C1231.37 12.5027 1231.2 12.3936 1231.02 12.32C1230.83 12.2463 1230.64 12.2095 1230.44 12.2117C1230.24 12.2139 1230.05 12.255 1229.86 12.3326C1229.68 12.4103 1229.52 12.523 1229.38 12.6643C1229.24 12.8056 1229.13 12.9728 1229.06 13.1563C1228.99 13.3398 1228.95 13.536 1228.95 13.7337C1228.96 14.1329 1229.12 14.5141 1229.4 14.7933C1229.69 15.0725 1230.07 15.2269 1230.47 15.2225C1230.87 15.2181 1231.25 15.0553 1231.53 14.7699C1231.81 14.4845 1231.97 14.0998 1231.96 13.7006Z" fill="#D2D2D2"/>
</g>
<defs>
<clipPath id="clip0_1792_5">
<rect width="18.0656" height="18.0656" fill="white" transform="translate(1231.78 2.22363) rotate(57.0634)"/>
</clipPath>
</defs>
</svg>
