<svg width="22" height="22" viewBox="0 0 22 22" fill="none" xmlns="http://www.w3.org/2000/svg">
<g clip-path="url(#clip0_1500_101)">
<path d="M20.0328 1.29808C19.7269 2.03057 19.3316 2.72241 18.8558 3.35783C17.8365 2.30202 16.6157 1.46147 15.2656 0.885971C13.9156 0.310467 12.4638 0.0117034 10.9963 0.007372C9.5287 0.00304058 8.07518 0.293229 6.72178 0.860754C5.36838 1.42828 4.14262 2.2616 3.11708 3.31138C2.09153 4.36115 1.28705 5.60604 0.751283 6.97232C0.215512 8.3386 -0.0406603 9.7985 -0.00206501 11.2656C0.0365303 12.7326 0.369108 14.177 0.975976 15.5133C1.58284 16.8495 2.45166 18.0503 3.53099 19.0447L3.93799 19.4068C5.48415 20.7111 7.36114 21.5618 9.36107 21.865C11.361 22.1681 13.4058 21.9118 15.269 21.1243C17.1322 20.3369 18.7411 19.0491 19.9175 17.4036C21.0938 15.758 21.7918 13.819 21.934 11.8012C22.2512 9.03933 21.4133 5.50833 20.0328 1.29808ZM5.11499 19.1355C4.99863 19.2784 4.84256 19.3835 4.66647 19.4377C4.49038 19.492 4.30217 19.4928 4.12562 19.4401C3.94907 19.3874 3.79208 19.2836 3.67448 19.1418C3.55689 18.9999 3.48396 18.8264 3.46491 18.6432C3.44585 18.4599 3.48153 18.2751 3.56742 18.1121C3.65332 17.9491 3.78559 17.8152 3.94753 17.7274C4.10947 17.6395 4.29382 17.6016 4.4773 17.6184C4.66077 17.6352 4.83515 17.706 4.9784 17.8219C5.1661 17.9808 5.2851 18.2062 5.31056 18.4508C5.33601 18.6954 5.26594 18.9413 5.11499 19.1355ZM19.9641 15.852C17.27 19.4508 11.4757 18.2289 7.78524 18.4095C7.78524 18.4095 7.1289 18.4553 6.47257 18.5452C6.47257 18.5452 6.7219 18.4324 7.03907 18.3187C9.6424 17.414 10.8643 17.2325 12.4483 16.4176C15.4137 14.9014 18.3792 11.5739 18.9677 8.13275C17.8356 11.4382 14.3953 14.29 11.2713 15.4441C9.12082 16.237 5.25065 17.0061 5.25065 17.0061L5.09207 16.9153C2.46582 15.6256 2.37599 9.92116 7.17474 8.08783C9.2794 7.272 11.2722 7.72575 13.5575 7.18216C15.9802 6.61658 18.7871 4.80525 19.9192 2.42833C21.186 6.2545 22.7251 12.1844 19.9641 15.852Z" fill="black"/>
</g>
<defs>
<clipPath id="clip0_1500_101">
<rect width="22" height="22" fill="white"/>
</clipPath>
</defs>
</svg>
