<svg width="22" height="22" viewBox="0 0 22 22" fill="none" xmlns="http://www.w3.org/2000/svg">
<g clip-path="url(#clip0_1500_103)">
<path d="M21.7186 9.8136L17.3827 2.31068C17.0069 1.65984 16.0838 1.12451 15.3294 1.12451H6.66692C5.91525 1.12451 4.9885 1.65984 4.61358 2.31068L0.280502 9.8136C-0.0953316 10.4644 -0.0953316 11.5305 0.280502 12.1823L4.61175 19.6888C4.98759 20.3397 5.91067 20.875 6.66508 20.875H15.3322C16.0838 20.875 17.006 20.3397 17.3855 19.6888L21.7177 12.1813C22.0935 11.5305 22.0935 10.4644 21.7177 9.8136H21.7186ZM10.0613 5.27518C10.0613 4.78293 10.4628 4.38143 10.9542 4.38143C11.4455 4.38143 11.8479 4.78293 11.8479 5.27518V10.6111C11.8334 10.838 11.733 11.0509 11.5671 11.2064C11.4013 11.3619 11.1825 11.4485 10.9551 11.4485C10.7277 11.4485 10.5089 11.3619 10.343 11.2064C10.1772 11.0509 10.0768 10.838 10.0623 10.6111L10.0613 5.27518ZM10.9542 16.6693C9.34826 16.6672 7.80878 16.0281 6.6734 14.8924C5.53802 13.7567 4.89945 12.217 4.89775 10.6111C4.90006 9.66656 5.12217 8.73552 5.54648 7.89165C5.9708 7.04779 6.5857 6.31425 7.3425 5.7491C7.42632 5.68665 7.52166 5.64137 7.62302 5.61586C7.72439 5.59035 7.82979 5.58511 7.93319 5.60044C8.03659 5.61577 8.13594 5.65137 8.22554 5.70519C8.31515 5.75902 8.39324 5.83001 8.45533 5.9141C8.51774 5.99778 8.56302 6.09295 8.5886 6.19415C8.61417 6.29536 8.61953 6.40062 8.60438 6.5039C8.58922 6.60718 8.55384 6.70646 8.50027 6.79605C8.4467 6.88564 8.37598 6.96379 8.29217 7.02601C7.37386 7.74445 6.77264 8.79329 6.61677 9.94877C6.46089 11.1043 6.7627 12.2749 7.4578 13.211C8.1529 14.1471 9.18628 14.7745 10.3375 14.9594C11.4887 15.1443 12.6665 14.8721 13.6198 14.2008C14.1794 13.7844 14.6339 13.243 14.947 12.6197C15.26 11.9964 15.423 11.3086 15.4229 10.6111C15.4209 9.91099 15.2552 9.22106 14.9391 8.59637C14.623 7.97168 14.1653 7.42952 13.6024 7.01318C13.433 6.88757 13.3202 6.69996 13.2888 6.4914C13.2573 6.28284 13.3098 6.07032 13.4347 5.90035C13.5603 5.73091 13.7479 5.61813 13.9564 5.5867C14.165 5.55526 14.3775 5.60772 14.5475 5.7326C15.3104 6.29699 15.9306 7.03221 16.3583 7.87937C16.786 8.72653 17.0094 9.66208 17.0106 10.6111C17.0094 12.2172 16.3708 13.7572 15.2351 14.8929C14.0994 16.0286 12.5594 16.6672 10.9533 16.6684" fill="black"/>
</g>
<defs>
<clipPath id="clip0_1500_103">
<rect width="22" height="22" fill="white"/>
</clipPath>
</defs>
</svg>
