<svg width="42" height="42" viewBox="0 0 42 42" fill="none" xmlns="http://www.w3.org/2000/svg">
<g clip-path="url(#clip0_1577_331)">
<path d="M20.8005 17.0958C23.6822 17.0958 25.9642 17.8582 27.6465 19.383C29.3288 20.909 30.17 22.9892 30.17 25.6235C30.17 28.6755 29.2116 31.0613 27.2948 32.781C25.3908 34.4902 22.6782 35.3447 19.1572 35.3447C15.9617 35.3447 13.4517 34.8297 11.627 33.7995V29.6345C12.7692 30.2643 13.9938 30.7314 15.2652 31.0222C16.6337 31.3489 17.9054 31.5122 19.0802 31.5122C21.1523 31.5122 22.7296 31.0491 23.8123 30.1227C24.8949 29.1964 25.4362 27.8402 25.4362 26.054C25.4362 22.638 23.2587 20.9294 18.9035 20.9282C18.291 20.9282 17.5344 20.9936 16.6338 21.1243C15.7343 21.2409 14.9456 21.378 14.2677 21.5355L12.2133 20.3228L13.3088 6.35775H28.175V10.444H17.3582L16.7108 17.5245C17.1693 17.4475 17.7234 17.3565 18.3732 17.2515C19.0382 17.1465 19.8473 17.094 20.8005 17.094V17.0958ZM21 0C9.40275 0 0 9.40275 0 21C0.0011037 24.9044 1.0907 28.7313 3.14642 32.0507C5.20214 35.3702 8.14257 38.0508 11.6375 39.7915V33.3602H11.879C11.8965 33.3672 20.384 37.6758 25.9158 33.3602C31.451 29.0413 28.7507 23.2365 27.8057 21.8855C26.8608 20.5362 22.001 18.2402 17.8167 18.6462C13.6325 19.0505 13.6325 19.1853 13.6325 19.1853L14.7122 6.76725L28.1645 6.63775V1.302C25.8698 0.453898 23.4446 0.0132718 20.9982 0L21 0ZM28.1645 1.302V6.63775L14.7122 6.76725L13.6325 19.1853C13.6325 19.1853 13.6325 19.0505 17.8167 18.6462C22.0028 18.2402 26.8625 20.5362 27.8057 21.8855C28.7507 23.2365 31.451 29.0413 25.9158 33.3602C20.3857 37.6775 11.8913 33.3672 11.879 33.3602H11.6375V39.7915C14.5459 41.2424 17.7497 41.9984 21 42C32.599 42 42 32.5972 42 21C41.9927 16.7734 40.7113 12.6473 38.3231 9.1601C35.9348 5.67296 32.5507 2.98687 28.6125 1.4525C28.4645 1.40011 28.314 1.34994 28.1645 1.302Z" fill="url(#paint0_linear_1577_331)"/>
</g>
<defs>
<linearGradient id="paint0_linear_1577_331" x1="21" y1="0" x2="21" y2="42" gradientUnits="userSpaceOnUse">
<stop stop-color="#1F7CEF"/>
<stop offset="1" stop-color="#124789"/>
</linearGradient>
<clipPath id="clip0_1577_331">
<rect width="42" height="42" fill="white"/>
</clipPath>
</defs>
</svg>
