<svg xmlns="http://www.w3.org/2000/svg" version="1.2" viewBox="0 0 28 28" width="28" height="28"><title>springboot</title><style> .s0 { fill: #1860b8 } </style><path class="s0" d="m25.7 12.7l-4.7-8.2c-0.4-0.7-1.5-1.3-2.3-1.3h-9.4c-0.8 0-1.9 0.6-2.3 1.3l-4.7 8.2c-0.4 0.7-0.4 1.9 0 2.6l4.7 8.2c0.4 0.7 1.4 1.3 2.3 1.3h9.4c0.8 0 1.9-0.6 2.3-1.3l4.7-8.2c0.4-0.7 0.4-1.9 0-2.6zm-12.7-4.9c0-0.6 0.4-1 0.9-1 0.6 0 1 0.4 1 1v5.8q0 0.4-0.3 0.6-0.3 0.3-0.6 0.3-0.4 0-0.7-0.3-0.3-0.2-0.3-0.6zm1 12.4q-1.4 0-2.6-0.5-1.2-0.5-2.1-1.4-0.9-1-1.5-2.2-0.5-1.2-0.5-2.5 0-0.8 0.2-1.5 0.2-0.8 0.6-1.5 0.3-0.7 0.8-1.3 0.5-0.5 1.1-1 0.1-0.1 0.3-0.2 0.2 0 0.4 0 0.1 0.1 0.3 0.1 0.1 0.1 0.2 0.3 0.1 0.1 0.2 0.3 0 0.1 0 0.3 0 0.2-0.1 0.3-0.1 0.2-0.3 0.3c-1 0.8-1.6 1.9-1.8 3.2-0.2 1.2 0.2 2.5 0.9 3.5 0.8 1.1 1.9 1.7 3.2 1.9 1.2 0.2 2.5-0.1 3.6-0.8q0.4-0.3 0.8-0.8 0.4-0.4 0.6-0.9 0.3-0.5 0.4-1.1 0.1-0.5 0.1-1.1 0-0.6-0.1-1.1-0.1-0.6-0.4-1.1-0.3-0.5-0.6-0.9-0.4-0.5-0.9-0.8-0.1-0.1-0.2-0.3-0.1-0.1-0.1-0.3 0-0.2 0-0.3 0.1-0.2 0.2-0.3 0.1-0.2 0.2-0.3 0.2-0.1 0.3-0.1 0.2 0 0.4 0 0.1 0.1 0.3 0.2 0.6 0.4 1.1 1 0.5 0.6 0.8 1.3 0.4 0.7 0.6 1.5 0.2 0.7 0.2 1.5 0 1.3-0.5 2.5-0.6 1.2-1.5 2.2-0.9 0.9-2.1 1.4-1.2 0.5-2.5 0.5z" fill="#000000"/></svg>