<svg width="107" height="77" viewBox="0 0 107 77" fill="none" xmlns="http://www.w3.org/2000/svg">
<g clip-path="url(#clip0_1839_2)">
<g clip-path="url(#clip1_1839_2)">
<path fill-rule="evenodd" clip-rule="evenodd" d="M104.082 73.3759L104.005 73.4345C103.801 73.5872 103.53 73.7888 103.262 73.7868C103.042 73.7856 102.823 73.6482 102.64 73.513L102.523 73.4248C102.25 73.2151 101.927 72.9056 101.635 72.4956C101.06 71.6865 100.61 70.4879 100.907 68.9235C100.862 68.8683 100.812 68.8173 100.761 68.7677L100.684 68.6945C100.564 68.5821 100.445 68.4696 100.366 68.3243C100.243 68.0981 100.309 67.8037 100.396 67.5537L100.44 67.4328L100.5 67.2804C100.616 66.9985 100.8 66.6455 101.136 66.648C101.337 66.649 101.525 66.7563 101.705 66.8705L101.772 66.9133C101.855 66.9689 101.941 67.0202 102.029 67.0672C102.081 67.0932 102.134 67.1186 102.189 67.1433C102.186 67.1056 102.184 67.0677 102.184 67.0298C102.185 66.8468 102.259 66.6469 102.328 66.4901C102.403 66.3193 102.501 66.1385 102.596 65.9755L102.645 65.8923L102.741 65.7349L102.83 65.5944L102.939 65.4289L103.008 65.327C103.044 65.2766 103.091 65.2355 103.145 65.2073C103.2 65.179 103.26 65.1645 103.322 65.1649C103.383 65.1653 103.444 65.1806 103.498 65.2096C103.552 65.2385 103.598 65.2802 103.633 65.3311L103.723 65.4688L103.866 65.6957L103.967 65.8644L104.037 65.9853C104.129 66.1492 104.225 66.3312 104.297 66.503C104.364 66.6607 104.436 66.8616 104.434 67.0446L104.433 67.0862L104.457 67.0763C104.52 67.0486 104.582 67.0188 104.642 66.9868L104.739 66.9366C104.979 66.8098 105.237 66.6747 105.482 66.6765C105.778 66.6782 105.952 66.9551 106.066 67.2152L106.109 67.3173L106.167 67.4707L106.21 67.5922C106.293 67.8431 106.355 68.1383 106.229 68.3629C106.162 68.4818 106.067 68.5793 105.966 68.673L105.906 68.7291C105.827 68.8018 105.748 68.8739 105.68 68.9546C105.956 70.523 105.491 71.7156 104.905 72.5171C104.67 72.8391 104.394 73.128 104.082 73.3759ZM103.362 67.4083C103.435 67.3979 103.503 67.3665 103.558 67.3178C103.613 67.2692 103.652 67.2054 103.671 67.1345L103.681 67.0858L103.684 67.0391L103.676 66.964C103.646 66.7952 103.549 66.6174 103.451 66.4574L103.357 66.3041L103.314 66.2338L103.276 66.2964L103.189 66.4321C103.071 66.6204 102.946 66.8359 102.934 67.0345C102.933 67.1253 102.966 67.2133 103.025 67.282C103.084 67.3508 103.167 67.3957 103.257 67.4084L103.303 67.4118L103.316 67.4117L103.362 67.4083ZM103.282 71.1617C103.38 71.1624 103.478 71.1437 103.569 71.1066C103.66 71.0695 103.743 71.0148 103.814 70.9457C103.884 70.8765 103.939 70.7942 103.978 70.7034C104.016 70.6127 104.036 70.5153 104.037 70.4168C104.037 70.3183 104.019 70.2207 103.982 70.1294C103.945 70.0382 103.89 69.9551 103.821 69.885C103.751 69.8149 103.669 69.7591 103.578 69.7208C103.488 69.6825 103.39 69.6624 103.292 69.6617C103.093 69.6604 102.902 69.7381 102.76 69.8778C102.618 70.0175 102.538 70.2078 102.537 70.4067C102.535 70.6056 102.613 70.7969 102.753 70.9385C102.893 71.0801 103.083 71.1604 103.282 71.1617Z" fill="#1F7CEF"/>
</g>
<path d="M103.448 69.4733L103.448 8.34583C103.448 5.58441 101.209 3.34583 98.4476 3.34583L31.281 3.34587C28.5196 3.34587 26.281 5.58444 26.281 8.34587L26.281 13.9733" stroke="#4093FA" stroke-dasharray="2 2"/>
</g>
<defs>
<clipPath id="clip0_1839_2">
<rect width="107" height="77" fill="white"/>
</clipPath>
<clipPath id="clip1_1839_2">
<rect width="9" height="9" fill="white" transform="translate(109 71.1748) rotate(148.08)"/>
</clipPath>
</defs>
</svg>
