<svg width="37" height="34" viewBox="0 0 37 34" fill="none" xmlns="http://www.w3.org/2000/svg">
<path d="M10.6 0.199951C9.48607 0.199951 8.41778 0.64245 7.63013 1.4301C6.84247 2.21776 6.39998 3.28604 6.39998 4.39995V19.2806C7.01405 19.4977 7.54573 19.8998 7.92181 20.4316C8.29789 20.9633 8.49988 21.5986 8.49998 22.25V4.39995C8.49998 3.843 8.72122 3.30885 9.11505 2.91503C9.50888 2.5212 10.043 2.29995 10.6 2.29995H19V9.64995C19 10.4854 19.3318 11.2866 19.9226 11.8773C20.5133 12.4681 21.3145 12.8 22.15 12.8H29.5V20.507C29.9788 19.7866 30.739 19.289 31.6 19.142V11.5715C31.5992 10.7363 31.2669 9.93562 30.676 9.34545L22.4566 1.12395C21.8664 0.533043 21.0657 0.200686 20.2306 0.199951H10.6ZM29.0653 10.7H22.15C21.8715 10.7 21.6044 10.5893 21.4075 10.3924C21.2106 10.1955 21.1 9.92843 21.1 9.64995V2.73465L29.0653 10.7ZM22.675 33.7999C22.8927 33.8 23.1051 33.7322 23.2827 33.6062C23.4603 33.4802 23.5943 33.302 23.6662 33.0965L27.3412 22.5965C27.4331 22.3336 27.4168 22.0449 27.2959 21.7941C27.175 21.5432 26.9594 21.3506 26.6965 21.2587C26.4336 21.1669 26.145 21.1831 25.8941 21.3041C25.6432 21.425 25.4507 21.6406 25.3588 21.9035L22.675 29.5727L19.9912 21.9035C19.8993 21.6406 19.7067 21.425 19.4558 21.3041C19.205 21.1831 18.9164 21.1669 18.6535 21.2587C18.3906 21.3506 18.175 21.5432 18.0541 21.7941C17.9332 22.0449 17.9169 22.3336 18.0088 22.5965L21.6838 33.0965C21.7556 33.302 21.8896 33.4802 22.0672 33.6062C22.2448 33.7322 22.4572 33.8 22.675 33.7999ZM33.1162 21.9035C33.0443 21.6979 32.9103 21.5197 32.7327 21.3937C32.5551 21.2676 32.3428 21.1999 32.125 21.1999C31.9072 21.1999 31.6948 21.2676 31.5172 21.3937C31.3396 21.5197 31.2056 21.6979 31.1338 21.9035L27.4588 32.4034C27.3669 32.6663 27.3832 32.955 27.5041 33.2058C27.625 33.4567 27.8406 33.6493 28.1035 33.7411C28.3664 33.833 28.655 33.8167 28.9058 33.6958C29.1567 33.5749 29.3493 33.3593 29.4412 33.0965L29.9305 31.6999H34.3195L34.8088 33.0965C34.8543 33.2266 34.925 33.3465 35.0168 33.4494C35.1087 33.5522 35.2199 33.636 35.3441 33.6958C35.4683 33.7557 35.6031 33.7905 35.7408 33.7983C35.8785 33.8061 36.0163 33.7867 36.1465 33.7411C36.2766 33.6956 36.3966 33.625 36.4994 33.5331C36.6023 33.4412 36.686 33.33 36.7459 33.2058C36.8057 33.0816 36.8405 32.9468 36.8483 32.8091C36.8561 32.6715 36.8367 32.5336 36.7912 32.4034L33.1162 21.9035ZM33.5845 29.5999H30.6655L32.125 25.4293L33.5845 29.5999ZM5.34998 21.2C5.62845 21.2 5.89552 21.3106 6.09244 21.5075C6.28935 21.7044 6.39998 21.9715 6.39998 22.25V30.65C6.39998 31.4854 6.0681 32.2866 5.47736 32.8773C4.88662 33.4681 4.08541 33.7999 3.24998 33.7999C2.41454 33.7999 1.61333 33.4681 1.02259 32.8773C0.43185 32.2866 0.0999756 31.4854 0.0999756 30.65V29.5999C0.0999756 29.3215 0.2106 29.0544 0.407513 28.8575C0.604427 28.6606 0.871498 28.5499 1.14998 28.5499C1.42845 28.5499 1.69552 28.6606 1.89244 28.8575C2.08935 29.0544 2.19998 29.3215 2.19998 29.5999V30.65C2.19998 30.9284 2.3106 31.1955 2.50751 31.3924C2.70443 31.5893 2.9715 31.6999 3.24998 31.6999C3.52845 31.6999 3.79552 31.5893 3.99244 31.3924C4.18935 31.1955 4.29998 30.9284 4.29998 30.65V22.25C4.29998 21.9715 4.4106 21.7044 4.60751 21.5075C4.80443 21.3106 5.0715 21.2 5.34998 21.2ZM13.225 21.2C13.4427 21.1999 13.6551 21.2677 13.8327 21.3937C14.0103 21.5197 14.1443 21.6979 14.2162 21.9035L17.8912 32.4034C17.9831 32.6663 17.9668 32.955 17.8459 33.2058C17.725 33.4567 17.5094 33.6493 17.2465 33.7411C16.9836 33.833 16.695 33.8167 16.4441 33.6958C16.1932 33.5749 16.0007 33.3593 15.9088 33.0965L15.4195 31.6999H11.0305L10.5412 33.0965C10.4493 33.3593 10.2567 33.5749 10.0058 33.6958C9.75498 33.8167 9.46636 33.833 9.20347 33.7411C8.94059 33.6493 8.72498 33.4567 8.60408 33.2058C8.48317 32.955 8.46688 32.6663 8.55877 32.4034L12.2338 21.9035C12.3056 21.6979 12.4396 21.5197 12.6172 21.3937C12.7948 21.2677 13.0072 21.1999 13.225 21.2ZM13.225 25.4293L11.7655 29.5999H14.6845L13.225 25.4293Z" fill="url(#paint0_linear_1577_364)"/>
<defs>
<linearGradient id="paint0_linear_1577_364" x1="18.475" y1="0.199951" x2="18.475" y2="33.8" gradientUnits="userSpaceOnUse">
<stop stop-color="#1F7CEF"/>
<stop offset="1" stop-color="#124789"/>
</linearGradient>
</defs>
</svg>
