<svg width="13" height="12" viewBox="0 0 13 12" fill="none" xmlns="http://www.w3.org/2000/svg">
<path d="M10.4062 5.64844C9.71354 4.9974 9.00781 4.32812 8.28906 3.64062C7.57031 2.94792 6.84375 2.23698 6.10938 1.50781C6.07292 1.47135 6.04688 1.43229 6.03125 1.39062C6.01562 1.34896 6.01302 1.30208 6.02344 1.25C6.03906 1.19792 6.07031 1.14062 6.11719 1.07812C6.16927 1.01042 6.23958 0.932292 6.32812 0.84375C6.41146 0.760417 6.48438 0.697917 6.54688 0.65625C6.61458 0.609375 6.67188 0.583333 6.71875 0.578125C6.76562 0.567708 6.80729 0.570312 6.84375 0.585938C6.88021 0.596354 6.91406 0.617188 6.94531 0.648438L12.0703 5.76562C12.1328 5.83333 12.1823 5.90104 12.2188 5.96875C12.2604 6.03125 12.2812 6.11979 12.2812 6.23438C12.2812 6.32292 12.2656 6.40365 12.2344 6.47656C12.2031 6.54427 12.1484 6.61979 12.0703 6.70312L6.94531 11.8203C6.91406 11.8516 6.88021 11.8724 6.84375 11.8828C6.80729 11.8984 6.76562 11.901 6.71875 11.8906C6.67188 11.8854 6.61458 11.8594 6.54688 11.8125C6.48438 11.7708 6.41146 11.7083 6.32812 11.625C6.23958 11.5365 6.16927 11.4583 6.11719 11.3906C6.07031 11.3281 6.03906 11.2708 6.02344 11.2188C6.01302 11.1667 6.01562 11.1198 6.03125 11.0781C6.04688 11.0417 6.07292 11.0052 6.10938 10.9688C6.84375 10.2344 7.57031 9.52344 8.28906 8.83594C9.00781 8.14323 9.71354 7.47135 10.4062 6.82031H0.429688C0.393229 6.82031 0.359375 6.8099 0.328125 6.78906C0.296875 6.76823 0.268229 6.73698 0.242188 6.69531C0.221354 6.64844 0.203125 6.58854 0.1875 6.51562C0.177083 6.4375 0.171875 6.34375 0.171875 6.23438C0.171875 6.125 0.177083 6.03385 0.1875 5.96094C0.203125 5.88281 0.221354 5.82292 0.242188 5.78125C0.268229 5.73438 0.296875 5.70052 0.328125 5.67969C0.359375 5.65885 0.393229 5.64844 0.429688 5.64844H10.4062Z" fill="black"/>
</svg>
